<svg width="16" height="16" viewBox="0 0 16 16" fill="none" xmlns="http://www.w3.org/2000/svg">
<rect width="16" height="16" rx="2.5" fill="#335DE8"/>
<path d="M8.23875 12.962C7.96275 12.962 7.74075 12.95 7.57275 12.926C7.41075 12.908 7.26375 12.863 7.13175 12.791C7.00575 12.725 6.85875 12.62 6.69075 12.476C6.43875 12.248 6.21975 12.032 6.03375 11.828C5.85375 11.63 5.67375 11.465 5.49375 11.333C5.31375 11.207 5.09775 11.144 4.84575 11.144C4.29375 11.144 3.82275 11.048 3.43275 10.856C3.04875 10.658 2.73675 10.4 2.49675 10.082C2.25675 9.758 2.07975 9.401 1.96575 9.011C1.85775 8.621 1.80375 8.234 1.80375 7.85C1.80375 7.472 1.86675 7.091 1.99275 6.707C2.12475 6.317 2.31975 5.96 2.57775 5.636C2.84175 5.312 3.17175 5.051 3.56775 4.853C3.96375 4.655 4.42875 4.556 4.96275 4.556C5.50875 4.556 5.97975 4.655 6.37575 4.853C6.77175 5.051 7.09575 5.315 7.34775 5.645C7.59975 5.969 7.78575 6.323 7.90575 6.707C8.02575 7.091 8.08575 7.472 8.08575 7.85C8.08575 8.15 8.04375 8.456 7.95975 8.768C7.87575 9.074 7.74975 9.371 7.58175 9.659C7.41375 9.941 7.20075 10.196 6.94275 10.424C6.69075 10.646 6.39675 10.823 6.06075 10.955C6.23475 10.955 6.38775 10.967 6.51975 10.991C6.65775 11.015 6.79275 11.06 6.92475 11.126C7.05675 11.198 7.20075 11.309 7.35675 11.459C7.56675 11.651 7.73175 11.807 7.85175 11.927C7.97775 12.047 8.07975 12.137 8.15775 12.197C8.23575 12.263 8.30775 12.305 8.37375 12.323C8.44575 12.347 8.52975 12.359 8.62575 12.359V12.962H8.23875ZM5.02575 10.487C5.33775 10.487 5.59875 10.412 5.80875 10.262C6.01875 10.106 6.18675 9.905 6.31275 9.659C6.43875 9.413 6.52875 9.146 6.58275 8.858C6.64275 8.564 6.67275 8.279 6.67275 8.003C6.67275 7.589 6.63675 7.211 6.56475 6.869C6.49275 6.527 6.38175 6.233 6.23175 5.987C6.08175 5.735 5.88975 5.543 5.65575 5.411C5.42775 5.273 5.15775 5.207 4.84575 5.213C4.53375 5.219 4.27275 5.303 4.06275 5.465C3.85275 5.621 3.68475 5.825 3.55875 6.077C3.43875 6.323 3.35175 6.593 3.29775 6.887C3.24375 7.181 3.21675 7.466 3.21675 7.742C3.21675 8.024 3.24675 8.324 3.30675 8.642C3.37275 8.96 3.47475 9.26 3.61275 9.542C3.75075 9.824 3.93375 10.052 4.16175 10.226C4.39575 10.4 4.68375 10.487 5.02575 10.487ZM9.02006 11V10.406C9.15806 10.4 9.27206 10.382 9.36206 10.352C9.45806 10.322 9.53006 10.253 9.57806 10.145C9.63206 10.037 9.65906 9.863 9.65906 9.623V6.176C9.65906 6.014 9.66206 5.858 9.66806 5.708C9.68006 5.558 9.68906 5.444 9.69506 5.366C9.59906 5.372 9.47906 5.378 9.33506 5.384C9.19106 5.384 9.08606 5.387 9.02006 5.393V4.7C9.43406 4.694 9.84806 4.691 10.2621 4.691C10.6821 4.691 11.0991 4.688 11.5131 4.682C12.2331 4.676 12.8031 4.811 13.2231 5.087C13.6491 5.357 13.8471 5.768 13.8171 6.32C13.8051 6.494 13.7511 6.665 13.6551 6.833C13.5591 6.995 13.4151 7.142 13.2231 7.274C13.0371 7.406 12.8031 7.511 12.5211 7.589V7.598C13.1211 7.694 13.5621 7.895 13.8441 8.201C14.1261 8.501 14.2671 8.837 14.2671 9.209C14.2671 9.599 14.1711 9.929 13.9791 10.199C13.7931 10.463 13.5351 10.664 13.2051 10.802C12.8751 10.934 12.5001 11 12.0801 11H9.02006ZM10.9281 10.361C11.0361 10.361 11.1381 10.361 11.2341 10.361C11.3301 10.361 11.4261 10.361 11.5221 10.361C11.6181 10.355 11.7111 10.352 11.8011 10.352C12.1671 10.334 12.4341 10.217 12.6021 10.001C12.7701 9.785 12.8541 9.512 12.8541 9.182C12.8541 8.906 12.7971 8.69 12.6831 8.534C12.5691 8.372 12.4221 8.258 12.2421 8.192C12.0681 8.126 11.8851 8.093 11.6931 8.093C11.5431 8.093 11.4141 8.093 11.3061 8.093C11.1981 8.093 11.0841 8.096 10.9641 8.102V9.569C10.9641 9.731 10.9611 9.884 10.9551 10.028C10.9491 10.172 10.9401 10.283 10.9281 10.361ZM10.9641 7.463L11.4321 7.454C11.6841 7.448 11.8821 7.391 12.0261 7.283C12.1761 7.175 12.2811 7.031 12.3411 6.851C12.4071 6.665 12.4401 6.464 12.4401 6.248C12.4401 6.008 12.3921 5.822 12.2961 5.69C12.2001 5.552 12.0801 5.453 11.9361 5.393C11.7921 5.333 11.6421 5.306 11.4861 5.312C11.3901 5.312 11.3031 5.327 11.2251 5.357C11.1471 5.387 11.0841 5.456 11.0361 5.564C10.9881 5.666 10.9641 5.834 10.9641 6.068V7.463Z" fill="white"/>
</svg>
