<svg aria-hidden="true" style="position: absolute; width: 0; height: 0; overflow: hidden;" version="1.1" xmlns="http://www.w3.org/2000/svg" xmlns:xlink="http://www.w3.org/1999/xlink">
<defs>
<symbol id="infinity-card" viewBox="0 0 51 32">
<path fill="#374078" d="M2.695 0h45.137c1.488 0 2.695 1.206 2.695 2.695v26.611c0 1.488-1.206 2.695-2.695 2.695h-45.137c-1.488 0-2.695-1.206-2.695-2.695v-26.611c0-1.488 1.206-2.695 2.695-2.695z"></path>
<path fill="#C4C4C4" d="M2.189 4.833c0-0.558 0.452-1.011 1.011-1.011h4.042c0.558 0 1.011 0.452 1.011 1.011v2.601c0 0.558-0.452 1.011-1.011 1.011h-4.042c-0.558 0-1.011-0.452-1.011-1.011v-2.601z"></path>
<path fill="#EFEFF2" d="M6.677 18.293c0.273 0 0.472 0.050 0.596 0.148 0.126 0.097 0.189 0.234 0.189 0.41 0 0.11-0.026 0.207-0.078 0.294-0.050 0.086-0.127 0.155-0.229 0.205-0.102 0.049-0.228 0.073-0.377 0.073-0.135 0-0.263-0.022-0.385-0.065-0.12-0.045-0.217-0.104-0.291-0.178l0.094-0.154c0.063 0.065 0.146 0.118 0.248 0.159 0.102 0.040 0.213 0.059 0.331 0.059 0.156 0 0.277-0.035 0.361-0.105 0.086-0.070 0.129-0.163 0.129-0.28 0-0.129-0.048-0.227-0.146-0.294-0.095-0.066-0.257-0.1-0.485-0.1h-0.402l0.097-0.946h1.032v0.172h-0.862l-0.065 0.601h0.243zM8.311 17.52v1.886h-0.194v-1.714h-0.445v-0.172h0.639zM9.624 18.277c0.124 0 0.234 0.023 0.329 0.070 0.097 0.047 0.172 0.113 0.226 0.199 0.054 0.085 0.081 0.183 0.081 0.296 0 0.115-0.028 0.217-0.084 0.305s-0.133 0.156-0.232 0.205c-0.097 0.047-0.207 0.070-0.329 0.070-0.25 0-0.441-0.082-0.574-0.245-0.133-0.165-0.199-0.398-0.199-0.698 0-0.21 0.036-0.388 0.108-0.534s0.172-0.255 0.302-0.329c0.129-0.075 0.28-0.113 0.453-0.113 0.187 0 0.336 0.034 0.447 0.102l-0.078 0.156c-0.090-0.059-0.212-0.089-0.366-0.089-0.208 0-0.372 0.067-0.49 0.199-0.119 0.131-0.178 0.323-0.178 0.574 0 0.045 0.003 0.096 0.008 0.154 0.047-0.102 0.121-0.181 0.224-0.237 0.102-0.057 0.22-0.086 0.353-0.086zM9.608 19.258c0.137 0 0.247-0.037 0.331-0.11 0.086-0.075 0.129-0.175 0.129-0.299s-0.043-0.223-0.129-0.296c-0.084-0.074-0.199-0.11-0.345-0.11-0.095 0-0.18 0.018-0.253 0.054-0.072 0.036-0.128 0.085-0.17 0.148s-0.062 0.133-0.062 0.21c0 0.072 0.019 0.138 0.057 0.199 0.040 0.061 0.097 0.11 0.172 0.148s0.165 0.057 0.269 0.057zM11.646 18.417c0.119 0.040 0.209 0.099 0.272 0.178 0.065 0.079 0.097 0.174 0.097 0.286 0 0.11-0.030 0.206-0.089 0.288-0.059 0.081-0.145 0.144-0.256 0.189-0.11 0.043-0.239 0.065-0.388 0.065-0.226 0-0.404-0.049-0.534-0.146s-0.194-0.229-0.194-0.396c0-0.113 0.031-0.208 0.092-0.286 0.063-0.079 0.154-0.138 0.272-0.178-0.097-0.038-0.171-0.092-0.221-0.162-0.050-0.072-0.075-0.156-0.075-0.253 0-0.153 0.059-0.274 0.178-0.364 0.12-0.090 0.281-0.135 0.482-0.135 0.133 0 0.249 0.021 0.348 0.062 0.101 0.040 0.179 0.097 0.234 0.172s0.084 0.164 0.084 0.264c0 0.097-0.026 0.182-0.078 0.253-0.052 0.070-0.127 0.124-0.224 0.162zM10.816 18.007c0 0.104 0.041 0.187 0.124 0.248s0.197 0.092 0.342 0.092 0.26-0.030 0.342-0.092c0.084-0.061 0.127-0.143 0.127-0.245 0-0.106-0.043-0.189-0.129-0.251-0.084-0.061-0.198-0.092-0.34-0.092-0.144 0-0.258 0.031-0.342 0.092-0.083 0.061-0.124 0.144-0.124 0.248zM11.282 19.258c0.167 0 0.297-0.034 0.391-0.102 0.095-0.068 0.143-0.161 0.143-0.278s-0.048-0.208-0.143-0.275c-0.093-0.068-0.224-0.102-0.391-0.102-0.165 0-0.296 0.034-0.391 0.102-0.093 0.067-0.14 0.158-0.14 0.275 0 0.119 0.047 0.212 0.14 0.28 0.093 0.067 0.224 0.1 0.391 0.1zM16.054 17.52v0.137l-0.79 1.749h-0.21l0.776-1.714h-0.97v0.353h-0.191v-0.525h1.385zM16.837 18.293c0.273 0 0.472 0.050 0.596 0.148 0.126 0.097 0.189 0.234 0.189 0.41 0 0.11-0.026 0.207-0.078 0.294-0.050 0.086-0.127 0.155-0.229 0.205-0.102 0.049-0.228 0.073-0.377 0.073-0.135 0-0.263-0.022-0.385-0.065-0.12-0.045-0.217-0.104-0.291-0.178l0.094-0.154c0.063 0.065 0.146 0.118 0.248 0.159 0.102 0.040 0.213 0.059 0.332 0.059 0.156 0 0.277-0.035 0.361-0.105 0.086-0.070 0.129-0.163 0.129-0.28 0-0.129-0.049-0.227-0.146-0.294-0.095-0.066-0.257-0.1-0.485-0.1h-0.402l0.097-0.946h1.032v0.172h-0.862l-0.065 0.601h0.243zM19.223 19.233v0.172h-1.323v-0.137l0.784-0.768c0.099-0.097 0.165-0.181 0.199-0.251 0.036-0.072 0.054-0.144 0.054-0.216 0-0.111-0.039-0.198-0.116-0.259-0.075-0.063-0.184-0.094-0.326-0.094-0.221 0-0.393 0.070-0.515 0.21l-0.137-0.119c0.074-0.086 0.167-0.153 0.28-0.199 0.115-0.047 0.244-0.070 0.388-0.070 0.192 0 0.344 0.046 0.455 0.137 0.113 0.090 0.17 0.214 0.17 0.372 0 0.097-0.022 0.19-0.065 0.28s-0.125 0.193-0.245 0.31l-0.641 0.631h1.037zM20.288 19.422c-0.146 0-0.276-0.039-0.391-0.116-0.113-0.077-0.202-0.188-0.267-0.331-0.063-0.146-0.094-0.316-0.094-0.512s0.032-0.365 0.094-0.509c0.065-0.146 0.154-0.257 0.267-0.334 0.115-0.077 0.245-0.116 0.391-0.116s0.275 0.039 0.388 0.116c0.115 0.077 0.205 0.189 0.269 0.334 0.065 0.144 0.097 0.314 0.097 0.509s-0.032 0.366-0.097 0.512c-0.065 0.144-0.154 0.254-0.269 0.331-0.113 0.077-0.243 0.116-0.388 0.116zM20.288 19.244c0.11 0 0.206-0.030 0.288-0.092 0.085-0.061 0.15-0.15 0.197-0.267s0.070-0.258 0.070-0.423c0-0.165-0.023-0.306-0.070-0.423s-0.112-0.206-0.197-0.267c-0.083-0.061-0.179-0.092-0.288-0.092s-0.206 0.031-0.291 0.092c-0.083 0.061-0.147 0.15-0.194 0.267s-0.070 0.258-0.070 0.423c0 0.165 0.023 0.306 0.070 0.423s0.111 0.206 0.194 0.267c0.085 0.061 0.182 0.092 0.291 0.092zM25.048 19.233v0.172h-1.323v-0.137l0.784-0.768c0.099-0.097 0.165-0.181 0.199-0.251 0.036-0.072 0.054-0.144 0.054-0.216 0-0.111-0.039-0.198-0.116-0.259-0.075-0.063-0.184-0.094-0.326-0.094-0.221 0-0.392 0.070-0.515 0.21l-0.137-0.119c0.074-0.086 0.167-0.153 0.28-0.199 0.115-0.047 0.244-0.070 0.388-0.070 0.192 0 0.344 0.046 0.455 0.137 0.113 0.090 0.17 0.214 0.17 0.372 0 0.097-0.022 0.19-0.065 0.28s-0.125 0.193-0.245 0.31l-0.641 0.631h1.037zM26.661 19.233v0.172h-1.323v-0.137l0.784-0.768c0.099-0.097 0.165-0.181 0.199-0.251 0.036-0.072 0.054-0.144 0.054-0.216 0-0.111-0.039-0.198-0.116-0.259-0.075-0.063-0.184-0.094-0.326-0.094-0.221 0-0.392 0.070-0.515 0.21l-0.137-0.119c0.074-0.086 0.167-0.153 0.28-0.199 0.115-0.047 0.244-0.070 0.388-0.070 0.192 0 0.344 0.046 0.455 0.137 0.113 0.090 0.17 0.214 0.17 0.372 0 0.097-0.022 0.19-0.065 0.28s-0.125 0.193-0.245 0.31l-0.641 0.631h1.037zM27.508 17.52v1.886h-0.194v-1.714h-0.445v-0.172h0.639zM28.791 19.422c-0.146 0-0.276-0.039-0.391-0.116-0.113-0.077-0.202-0.188-0.267-0.331-0.063-0.146-0.094-0.316-0.094-0.512s0.032-0.365 0.094-0.509c0.065-0.146 0.154-0.257 0.267-0.334 0.115-0.077 0.245-0.116 0.391-0.116s0.275 0.039 0.388 0.116c0.115 0.077 0.205 0.189 0.269 0.334 0.065 0.144 0.097 0.314 0.097 0.509s-0.032 0.366-0.097 0.512c-0.065 0.144-0.154 0.254-0.269 0.331-0.113 0.077-0.243 0.116-0.388 0.116zM28.791 19.244c0.11 0 0.206-0.030 0.288-0.092 0.085-0.061 0.15-0.15 0.197-0.267s0.070-0.258 0.070-0.423c0-0.165-0.023-0.306-0.070-0.423s-0.112-0.206-0.197-0.267c-0.083-0.061-0.179-0.092-0.288-0.092s-0.206 0.031-0.291 0.092c-0.083 0.061-0.147 0.15-0.194 0.267s-0.070 0.258-0.070 0.423c0 0.165 0.023 0.306 0.070 0.423s0.111 0.206 0.194 0.267c0.085 0.061 0.182 0.092 0.291 0.092zM34.13 18.417c0.119 0.040 0.209 0.099 0.272 0.178 0.065 0.079 0.097 0.174 0.097 0.286 0 0.11-0.030 0.206-0.089 0.288-0.059 0.081-0.145 0.144-0.256 0.189-0.11 0.043-0.239 0.065-0.388 0.065-0.226 0-0.404-0.049-0.534-0.146s-0.194-0.229-0.194-0.396c0-0.113 0.030-0.208 0.092-0.286 0.063-0.079 0.154-0.138 0.272-0.178-0.097-0.038-0.171-0.092-0.221-0.162-0.050-0.072-0.075-0.156-0.075-0.253 0-0.153 0.059-0.274 0.178-0.364 0.12-0.090 0.281-0.135 0.482-0.135 0.133 0 0.249 0.021 0.348 0.062 0.101 0.040 0.179 0.097 0.234 0.172s0.084 0.164 0.084 0.264c0 0.097-0.026 0.182-0.078 0.253-0.052 0.070-0.127 0.124-0.224 0.162zM33.3 18.007c0 0.104 0.041 0.187 0.124 0.248s0.197 0.092 0.342 0.092 0.26-0.030 0.342-0.092c0.084-0.061 0.127-0.143 0.127-0.245 0-0.106-0.043-0.189-0.129-0.251-0.084-0.061-0.198-0.092-0.34-0.092-0.144 0-0.258 0.031-0.342 0.092-0.083 0.061-0.124 0.144-0.124 0.248zM33.766 19.258c0.167 0 0.297-0.034 0.391-0.102 0.095-0.068 0.143-0.161 0.143-0.278s-0.048-0.208-0.143-0.275c-0.093-0.068-0.224-0.102-0.391-0.102-0.165 0-0.296 0.034-0.391 0.102-0.093 0.067-0.14 0.158-0.14 0.275 0 0.119 0.047 0.212 0.14 0.28 0.093 0.067 0.224 0.1 0.391 0.1zM35.436 17.503c0.25 0 0.441 0.083 0.574 0.248 0.133 0.164 0.199 0.395 0.199 0.695 0 0.21-0.036 0.388-0.108 0.534s-0.172 0.256-0.302 0.331c-0.129 0.074-0.28 0.11-0.453 0.11-0.187 0-0.336-0.034-0.447-0.102l0.078-0.156c0.090 0.059 0.212 0.089 0.366 0.089 0.208 0 0.372-0.066 0.49-0.197 0.119-0.133 0.178-0.325 0.178-0.577 0-0.047-0.003-0.098-0.008-0.154-0.047 0.102-0.121 0.182-0.224 0.24-0.102 0.056-0.22 0.084-0.353 0.084-0.124 0-0.234-0.023-0.331-0.070-0.095-0.047-0.17-0.112-0.224-0.197-0.054-0.086-0.081-0.186-0.081-0.299 0-0.115 0.028-0.216 0.084-0.305s0.132-0.155 0.229-0.202c0.099-0.049 0.209-0.073 0.331-0.073zM35.457 18.484c0.095 0 0.179-0.018 0.251-0.054 0.074-0.036 0.131-0.085 0.172-0.148s0.062-0.133 0.062-0.21c0-0.072-0.020-0.138-0.059-0.199-0.038-0.061-0.094-0.11-0.17-0.148s-0.165-0.057-0.269-0.057c-0.137 0-0.248 0.038-0.334 0.113-0.084 0.074-0.127 0.172-0.127 0.296s0.042 0.223 0.127 0.296c0.086 0.074 0.202 0.11 0.348 0.11zM37.159 17.503c0.25 0 0.441 0.083 0.574 0.248 0.133 0.164 0.199 0.395 0.199 0.695 0 0.21-0.036 0.388-0.108 0.534s-0.172 0.256-0.302 0.331c-0.129 0.074-0.28 0.11-0.453 0.11-0.187 0-0.336-0.034-0.447-0.102l0.078-0.156c0.090 0.059 0.212 0.089 0.366 0.089 0.208 0 0.372-0.066 0.49-0.197 0.119-0.133 0.178-0.325 0.178-0.577 0-0.047-0.003-0.098-0.008-0.154-0.047 0.102-0.121 0.182-0.224 0.24-0.102 0.056-0.22 0.084-0.353 0.084-0.124 0-0.234-0.023-0.331-0.070-0.095-0.047-0.17-0.112-0.224-0.197-0.054-0.086-0.081-0.186-0.081-0.299 0-0.115 0.028-0.216 0.084-0.305s0.132-0.155 0.229-0.202c0.099-0.049 0.209-0.073 0.331-0.073zM37.18 18.484c0.095 0 0.179-0.018 0.251-0.054 0.074-0.036 0.131-0.085 0.172-0.148s0.062-0.133 0.062-0.21c0-0.072-0.020-0.138-0.059-0.199-0.038-0.061-0.094-0.11-0.17-0.148s-0.165-0.057-0.269-0.057c-0.137 0-0.248 0.038-0.334 0.113-0.084 0.074-0.127 0.172-0.127 0.296s0.042 0.223 0.127 0.296c0.086 0.074 0.202 0.11 0.348 0.11zM39.046 19.422c-0.146 0-0.276-0.039-0.391-0.116-0.113-0.077-0.202-0.188-0.267-0.331-0.063-0.146-0.094-0.316-0.094-0.512s0.032-0.365 0.094-0.509c0.065-0.146 0.154-0.257 0.267-0.334 0.115-0.077 0.245-0.116 0.391-0.116s0.275 0.039 0.388 0.116c0.115 0.077 0.205 0.189 0.269 0.334 0.065 0.144 0.097 0.314 0.097 0.509s-0.032 0.366-0.097 0.512c-0.065 0.144-0.154 0.254-0.269 0.331-0.113 0.077-0.243 0.116-0.388 0.116zM39.046 19.244c0.11 0 0.206-0.030 0.288-0.092 0.084-0.061 0.15-0.15 0.197-0.267s0.070-0.258 0.070-0.423c0-0.165-0.023-0.306-0.070-0.423s-0.112-0.206-0.197-0.267c-0.083-0.061-0.179-0.092-0.288-0.092s-0.207 0.031-0.291 0.092c-0.083 0.061-0.147 0.15-0.194 0.267s-0.070 0.258-0.070 0.423c0 0.165 0.023 0.306 0.070 0.423s0.111 0.206 0.194 0.267c0.084 0.061 0.181 0.092 0.291 0.092z"></path>
<path fill="#C4C4C4" d="M34.437 24.967c-0.109 0-0.207-0.029-0.293-0.087-0.085-0.058-0.152-0.141-0.2-0.249-0.047-0.109-0.071-0.237-0.071-0.384s0.024-0.274 0.071-0.382c0.048-0.109 0.115-0.193 0.2-0.251 0.086-0.058 0.184-0.087 0.293-0.087s0.206 0.029 0.291 0.087c0.086 0.058 0.154 0.141 0.202 0.251 0.048 0.108 0.073 0.235 0.073 0.382s-0.024 0.275-0.073 0.384c-0.048 0.108-0.116 0.191-0.202 0.249-0.085 0.058-0.182 0.087-0.291 0.087zM34.437 24.833c0.082 0 0.154-0.023 0.216-0.069 0.063-0.046 0.112-0.113 0.148-0.2s0.053-0.193 0.053-0.317c0-0.124-0.018-0.23-0.053-0.317s-0.084-0.154-0.148-0.2c-0.062-0.046-0.134-0.069-0.216-0.069s-0.155 0.023-0.218 0.069c-0.062 0.046-0.11 0.113-0.146 0.2s-0.053 0.193-0.053 0.317c0 0.124 0.018 0.23 0.053 0.317s0.084 0.154 0.146 0.2c0.063 0.046 0.136 0.069 0.218 0.069zM35.836 24.967c-0.109 0-0.207-0.029-0.293-0.087-0.085-0.058-0.152-0.141-0.2-0.249-0.047-0.109-0.071-0.237-0.071-0.384s0.024-0.274 0.071-0.382c0.048-0.109 0.115-0.193 0.2-0.251 0.086-0.058 0.184-0.087 0.293-0.087s0.206 0.029 0.291 0.087c0.086 0.058 0.154 0.141 0.202 0.251 0.048 0.108 0.073 0.235 0.073 0.382s-0.024 0.275-0.073 0.384c-0.048 0.108-0.116 0.191-0.202 0.249-0.085 0.058-0.182 0.087-0.291 0.087zM35.836 24.833c0.082 0 0.154-0.023 0.216-0.069 0.063-0.046 0.112-0.113 0.148-0.2s0.053-0.193 0.053-0.317c0-0.124-0.018-0.23-0.053-0.317s-0.084-0.154-0.148-0.2c-0.062-0.046-0.134-0.069-0.216-0.069s-0.155 0.023-0.218 0.069c-0.062 0.046-0.11 0.113-0.146 0.2s-0.053 0.193-0.053 0.317c0 0.124 0.018 0.23 0.053 0.317s0.084 0.154 0.146 0.2c0.063 0.046 0.136 0.069 0.218 0.069zM37.143 23.253h0.131l-0.667 1.904h-0.131l0.667-1.904zM37.894 24.967c-0.109 0-0.207-0.029-0.293-0.087-0.085-0.058-0.152-0.141-0.2-0.249-0.047-0.109-0.071-0.237-0.071-0.384s0.024-0.274 0.071-0.382c0.048-0.109 0.115-0.193 0.2-0.251 0.086-0.058 0.184-0.087 0.293-0.087s0.206 0.029 0.291 0.087c0.086 0.058 0.154 0.141 0.202 0.251 0.048 0.108 0.073 0.235 0.073 0.382s-0.024 0.275-0.073 0.384c-0.048 0.108-0.116 0.191-0.202 0.249-0.085 0.058-0.182 0.087-0.291 0.087zM37.894 24.833c0.082 0 0.154-0.023 0.216-0.069 0.063-0.046 0.112-0.113 0.148-0.2s0.053-0.193 0.053-0.317c0-0.124-0.018-0.23-0.053-0.317s-0.084-0.154-0.148-0.2c-0.062-0.046-0.134-0.069-0.216-0.069s-0.155 0.023-0.218 0.069c-0.062 0.046-0.11 0.113-0.146 0.2s-0.053 0.193-0.053 0.317c0 0.124 0.018 0.23 0.053 0.317s0.084 0.154 0.146 0.2c0.063 0.046 0.136 0.069 0.218 0.069zM39.292 24.967c-0.109 0-0.207-0.029-0.293-0.087-0.085-0.058-0.152-0.141-0.2-0.249-0.047-0.109-0.071-0.237-0.071-0.384s0.024-0.274 0.071-0.382c0.048-0.109 0.115-0.193 0.2-0.251 0.086-0.058 0.184-0.087 0.293-0.087s0.206 0.029 0.291 0.087c0.086 0.058 0.154 0.141 0.202 0.251 0.048 0.108 0.073 0.235 0.073 0.382s-0.024 0.275-0.073 0.384c-0.048 0.108-0.116 0.191-0.202 0.249-0.085 0.058-0.182 0.087-0.291 0.087zM39.292 24.833c0.082 0 0.154-0.023 0.216-0.069 0.063-0.046 0.112-0.113 0.148-0.2s0.053-0.193 0.053-0.317c0-0.124-0.018-0.23-0.053-0.317s-0.084-0.154-0.148-0.2c-0.062-0.046-0.134-0.069-0.216-0.069s-0.155 0.023-0.218 0.069c-0.062 0.046-0.11 0.113-0.146 0.2s-0.053 0.193-0.053 0.317c0 0.124 0.018 0.23 0.053 0.317s0.084 0.154 0.146 0.2c0.063 0.046 0.136 0.069 0.218 0.069z"></path>
<path fill="#C4C4C4" d="M6.694 28.386v0.489h-0.148v-0.489l-0.566-0.926h0.16l0.485 0.794 0.485-0.794h0.15l-0.566 0.926zM8.11 28.887c-0.14 0-0.267-0.031-0.382-0.093-0.113-0.063-0.202-0.15-0.267-0.259-0.063-0.109-0.095-0.232-0.095-0.368s0.032-0.259 0.095-0.368c0.065-0.109 0.154-0.195 0.267-0.257 0.115-0.063 0.242-0.095 0.382-0.095s0.266 0.031 0.378 0.093c0.113 0.062 0.202 0.148 0.267 0.259 0.065 0.109 0.097 0.232 0.097 0.368s-0.032 0.259-0.097 0.37c-0.065 0.109-0.154 0.195-0.267 0.257-0.112 0.062-0.238 0.093-0.378 0.093zM8.11 28.754c0.112 0 0.213-0.025 0.303-0.075 0.090-0.051 0.161-0.121 0.212-0.21 0.051-0.090 0.077-0.191 0.077-0.301s-0.026-0.21-0.077-0.299c-0.051-0.090-0.122-0.16-0.212-0.21-0.090-0.051-0.191-0.077-0.303-0.077s-0.214 0.026-0.305 0.077c-0.090 0.050-0.162 0.12-0.214 0.21-0.051 0.089-0.077 0.189-0.077 0.299s0.026 0.211 0.077 0.301c0.053 0.089 0.124 0.159 0.214 0.21 0.092 0.050 0.193 0.075 0.305 0.075zM9.818 28.887c-0.183 0-0.326-0.053-0.428-0.158s-0.154-0.258-0.154-0.459v-0.81h0.15v0.804c0 0.164 0.037 0.287 0.111 0.368s0.181 0.121 0.321 0.121c0.141 0 0.249-0.040 0.323-0.121s0.111-0.203 0.111-0.368v-0.804h0.146v0.81c0 0.201-0.051 0.354-0.154 0.459-0.101 0.105-0.243 0.158-0.426 0.158zM11.875 28.875l-0.323-0.455c-0.036 0.004-0.074 0.006-0.113 0.006h-0.38v0.449h-0.15v-1.415h0.53c0.181 0 0.322 0.043 0.424 0.129s0.154 0.205 0.154 0.356c0 0.11-0.028 0.204-0.085 0.281-0.055 0.075-0.135 0.13-0.238 0.164l0.346 0.485h-0.164zM11.434 28.299c0.14 0 0.247-0.031 0.321-0.093s0.111-0.149 0.111-0.261c0-0.115-0.037-0.202-0.111-0.263-0.074-0.062-0.181-0.093-0.321-0.093h-0.376v0.709h0.376zM14.202 27.46v1.415h-0.123l-0.909-1.148v1.148h-0.15v-1.415h0.123l0.912 1.148v-1.148h0.148zM15.612 28.497h-0.788l-0.17 0.378h-0.156l0.647-1.415h0.148l0.647 1.415h-0.158l-0.17-0.378zM15.557 28.376l-0.34-0.76-0.34 0.76h0.679zM17.703 27.46v1.415h-0.143v-1.132l-0.556 0.952h-0.071l-0.556-0.946v1.126h-0.143v-1.415h0.123l0.614 1.049 0.608-1.049h0.123zM19.225 28.745v0.129h-1v-1.415h0.97v0.129h-0.821v0.503h0.732v0.127h-0.732v0.525h0.851z"></path>
<path fill="#EFEFF2" d="M33.434 5.771c-0.083 0-0.149-0.004-0.199-0.011-0.048-0.005-0.092-0.019-0.132-0.040-0.038-0.020-0.082-0.051-0.132-0.094-0.075-0.068-0.141-0.133-0.197-0.194-0.054-0.059-0.108-0.109-0.162-0.148-0.054-0.038-0.119-0.057-0.194-0.057-0.165 0-0.306-0.029-0.423-0.086-0.115-0.059-0.208-0.137-0.28-0.232-0.072-0.097-0.125-0.204-0.159-0.321-0.032-0.117-0.049-0.233-0.049-0.348 0-0.113 0.019-0.227 0.057-0.342 0.040-0.117 0.098-0.224 0.175-0.321 0.079-0.097 0.178-0.175 0.296-0.234s0.258-0.089 0.418-0.089c0.164 0 0.304 0.030 0.423 0.089s0.216 0.138 0.291 0.237c0.075 0.097 0.131 0.203 0.167 0.318s0.054 0.229 0.054 0.342c0 0.090-0.013 0.181-0.038 0.275-0.025 0.092-0.063 0.181-0.113 0.267-0.050 0.084-0.114 0.161-0.191 0.229-0.075 0.066-0.164 0.119-0.264 0.159 0.052 0 0.098 0.004 0.137 0.011 0.041 0.007 0.082 0.021 0.121 0.040 0.040 0.022 0.083 0.055 0.129 0.1 0.063 0.057 0.112 0.104 0.148 0.14 0.038 0.036 0.068 0.063 0.092 0.081 0.023 0.020 0.045 0.032 0.065 0.038 0.022 0.007 0.047 0.011 0.075 0.011v0.181h-0.116zM32.472 5.030c0.093 0 0.172-0.022 0.234-0.067 0.063-0.047 0.113-0.107 0.151-0.181s0.065-0.154 0.081-0.24c0.018-0.088 0.027-0.173 0.027-0.256 0-0.124-0.011-0.237-0.032-0.34s-0.055-0.19-0.1-0.264c-0.045-0.075-0.102-0.133-0.172-0.172-0.068-0.041-0.149-0.061-0.243-0.059s-0.172 0.027-0.234 0.075c-0.063 0.047-0.113 0.108-0.151 0.183-0.036 0.074-0.062 0.155-0.078 0.243s-0.024 0.173-0.024 0.256c0 0.084 0.009 0.174 0.027 0.269 0.020 0.095 0.050 0.185 0.092 0.269s0.096 0.153 0.164 0.205c0.070 0.052 0.156 0.078 0.259 0.078zM34.233 5.227c-0.108 0-0.195-0.021-0.261-0.062-0.065-0.041-0.112-0.106-0.143-0.194-0.029-0.088-0.043-0.201-0.043-0.34v-0.31c0-0.032 0.001-0.069 0.003-0.11 0.002-0.043 0.004-0.084 0.005-0.124-0.029 0.002-0.063 0.004-0.102 0.005-0.038 0-0.066 0.001-0.086 0.003v-0.205h0.027c0.111 0 0.199-0.009 0.264-0.027s0.106-0.036 0.124-0.054h0.148v0.825c0 0.117 0.015 0.204 0.046 0.261 0.031 0.056 0.079 0.084 0.146 0.084 0.047 0 0.093-0.013 0.14-0.038 0.048-0.027 0.088-0.058 0.119-0.092v-0.528c0-0.032 0.001-0.069 0.003-0.11 0.002-0.043 0.005-0.084 0.008-0.124-0.029 0.002-0.063 0.004-0.102 0.005-0.038 0-0.066 0.001-0.086 0.003v-0.205h0.065c0.085 0 0.159-0.009 0.224-0.027 0.065-0.020 0.106-0.038 0.124-0.054h0.148v0.94c0 0.025-0.001 0.061-0.003 0.108-0.002 0.045-0.004 0.088-0.008 0.129 0.029-0.004 0.060-0.005 0.094-0.005 0.036-0.002 0.063-0.003 0.081-0.003v0.205h-0.512c-0.002-0.023-0.004-0.047-0.008-0.070-0.002-0.023-0.004-0.047-0.008-0.070-0.056 0.047-0.116 0.089-0.181 0.127-0.063 0.038-0.138 0.057-0.224 0.057zM36.042 5.227c-0.077 0-0.153-0.010-0.226-0.030s-0.131-0.045-0.172-0.075l0.005 0.081h-0.205l-0.011-0.463h0.175c0.005 0.054 0.027 0.103 0.065 0.148s0.087 0.081 0.148 0.108c0.061 0.025 0.129 0.038 0.205 0.038 0.030 0 0.059-0.005 0.086-0.013 0.029-0.009 0.052-0.023 0.070-0.043 0.020-0.022 0.030-0.048 0.030-0.078 0-0.034-0.013-0.062-0.038-0.084-0.023-0.022-0.058-0.042-0.105-0.062-0.045-0.020-0.102-0.042-0.17-0.067-0.056-0.022-0.112-0.044-0.17-0.067-0.056-0.023-0.108-0.051-0.156-0.084-0.047-0.034-0.084-0.075-0.113-0.124-0.029-0.050-0.043-0.111-0.043-0.183 0-0.052 0.010-0.103 0.030-0.154 0.020-0.052 0.050-0.099 0.092-0.14 0.041-0.043 0.093-0.077 0.156-0.102 0.065-0.025 0.141-0.038 0.229-0.038 0.048 0 0.103 0.008 0.164 0.024 0.063 0.014 0.116 0.037 0.159 0.067v-0.078h0.205v0.477h-0.175c-0.011-0.063-0.033-0.117-0.067-0.162-0.032-0.045-0.075-0.079-0.127-0.102-0.052-0.025-0.11-0.038-0.175-0.038-0.045 0-0.086 0.011-0.124 0.032-0.036 0.022-0.054 0.058-0.054 0.11 0 0.041 0.014 0.075 0.043 0.1 0.029 0.023 0.068 0.043 0.119 0.059s0.106 0.035 0.167 0.057c0.092 0.031 0.172 0.066 0.243 0.108 0.072 0.041 0.129 0.092 0.17 0.151 0.041 0.057 0.062 0.128 0.062 0.213 0 0.093-0.023 0.171-0.070 0.232s-0.108 0.107-0.183 0.137c-0.074 0.031-0.153 0.046-0.237 0.046zM37.56 5.184c-0.004-0.025-0.006-0.046-0.008-0.062 0-0.018-0.001-0.039-0.003-0.062-0.061 0.061-0.126 0.104-0.194 0.129s-0.137 0.038-0.208 0.038c-0.115 0-0.205-0.034-0.269-0.102s-0.097-0.154-0.097-0.256c0-0.086 0.022-0.16 0.065-0.221 0.045-0.061 0.103-0.11 0.175-0.148 0.074-0.040 0.154-0.069 0.243-0.089 0.090-0.022 0.18-0.034 0.269-0.038v-0.14c0-0.047-0.006-0.089-0.019-0.127-0.011-0.038-0.031-0.067-0.059-0.089-0.027-0.022-0.066-0.031-0.116-0.030-0.034 0.002-0.067 0.009-0.1 0.022s-0.060 0.031-0.084 0.054c0.014 0.016 0.023 0.034 0.027 0.054 0.004 0.018 0.005 0.034 0.005 0.048 0 0.036-0.014 0.074-0.043 0.113-0.029 0.038-0.075 0.056-0.137 0.054-0.054-0.002-0.095-0.021-0.124-0.057s-0.043-0.078-0.043-0.127c0-0.072 0.025-0.134 0.075-0.186 0.052-0.054 0.121-0.095 0.208-0.124 0.086-0.031 0.181-0.046 0.286-0.046 0.158 0 0.28 0.041 0.366 0.124 0.088 0.081 0.132 0.211 0.132 0.391 0 0.061 0 0.113 0 0.156s-0.001 0.086-0.003 0.129c0 0.043 0 0.095 0 0.156 0 0.025-0.001 0.061-0.003 0.108-0.002 0.045-0.005 0.088-0.008 0.129 0.030-0.004 0.063-0.005 0.097-0.005 0.034-0.002 0.060-0.003 0.078-0.003v0.205h-0.509zM37.53 4.564c-0.050 0.005-0.098 0.014-0.143 0.027s-0.085 0.030-0.119 0.051c-0.032 0.022-0.058 0.048-0.078 0.078-0.018 0.031-0.027 0.065-0.027 0.102 0.002 0.050 0.018 0.086 0.048 0.108s0.066 0.032 0.105 0.032c0.041 0 0.080-0.009 0.116-0.027s0.068-0.041 0.097-0.070c0-0.018 0-0.035 0-0.051 0-0.018 0-0.036 0-0.054 0-0.032 0-0.065 0-0.097 0-0.034 0-0.067 0-0.1zM38.316 5.184v-0.178c0.041-0.002 0.075-0.007 0.102-0.016 0.029-0.009 0.050-0.030 0.065-0.062 0.016-0.032 0.024-0.084 0.024-0.156v-1.032c0-0.049 0.001-0.095 0.003-0.14 0.004-0.045 0.006-0.079 0.008-0.102-0.029 0.002-0.065 0.004-0.108 0.005-0.043 0-0.074 0.001-0.094 0.003v-0.208c0.124-0.002 0.248-0.003 0.372-0.003 0.126 0 0.251-0.001 0.375-0.003 0.216-0.002 0.386 0.039 0.512 0.121 0.128 0.081 0.187 0.204 0.178 0.369-0.004 0.052-0.020 0.103-0.048 0.154-0.029 0.049-0.072 0.092-0.129 0.132-0.056 0.040-0.126 0.071-0.21 0.094v0.003c0.18 0.029 0.312 0.089 0.396 0.181 0.085 0.090 0.127 0.19 0.127 0.302 0 0.117-0.029 0.216-0.086 0.296-0.056 0.079-0.133 0.139-0.232 0.181-0.099 0.040-0.211 0.059-0.337 0.059h-0.916zM38.887 4.992c0.032 0 0.063 0 0.092 0s0.058 0 0.086 0c0.029-0.002 0.057-0.003 0.084-0.003 0.11-0.005 0.19-0.040 0.24-0.105s0.075-0.146 0.075-0.245c0-0.083-0.017-0.147-0.051-0.194-0.034-0.048-0.078-0.083-0.132-0.102-0.052-0.020-0.107-0.030-0.164-0.030-0.045 0-0.084 0-0.116 0s-0.066 0.001-0.102 0.003v0.439c0 0.048-0.001 0.094-0.003 0.137s-0.004 0.076-0.008 0.1zM38.898 4.125l0.14-0.003c0.075-0.002 0.135-0.019 0.178-0.051 0.045-0.032 0.076-0.075 0.094-0.129 0.020-0.056 0.030-0.116 0.030-0.181 0-0.072-0.014-0.128-0.043-0.167-0.029-0.041-0.065-0.071-0.108-0.089s-0.088-0.026-0.135-0.024c-0.029 0-0.055 0.004-0.078 0.013s-0.042 0.030-0.057 0.062c-0.014 0.031-0.022 0.081-0.022 0.151v0.418zM40.903 5.184c-0.004-0.025-0.006-0.046-0.008-0.062 0-0.018-0.001-0.039-0.003-0.062-0.061 0.061-0.126 0.104-0.194 0.129s-0.137 0.038-0.208 0.038c-0.115 0-0.205-0.034-0.269-0.102s-0.097-0.154-0.097-0.256c0-0.086 0.022-0.16 0.065-0.221 0.045-0.061 0.103-0.11 0.175-0.148 0.074-0.040 0.155-0.069 0.243-0.089 0.090-0.022 0.18-0.034 0.269-0.038v-0.14c0-0.047-0.006-0.089-0.019-0.127-0.011-0.038-0.030-0.067-0.059-0.089-0.027-0.022-0.066-0.031-0.116-0.030-0.034 0.002-0.067 0.009-0.1 0.022s-0.060 0.031-0.084 0.054c0.014 0.016 0.023 0.034 0.027 0.054 0.004 0.018 0.005 0.034 0.005 0.048 0 0.036-0.014 0.074-0.043 0.113-0.029 0.038-0.074 0.056-0.137 0.054-0.054-0.002-0.095-0.021-0.124-0.057s-0.043-0.078-0.043-0.127c0-0.072 0.025-0.134 0.075-0.186 0.052-0.054 0.121-0.095 0.208-0.124 0.086-0.031 0.182-0.046 0.286-0.046 0.158 0 0.28 0.041 0.366 0.124 0.088 0.081 0.132 0.211 0.132 0.391 0 0.061 0 0.113 0 0.156s-0.001 0.086-0.003 0.129c0 0.043 0 0.095 0 0.156 0 0.025-0.001 0.061-0.003 0.108-0.002 0.045-0.004 0.088-0.008 0.129 0.031-0.004 0.063-0.005 0.097-0.005 0.034-0.002 0.060-0.003 0.078-0.003v0.205h-0.509zM40.874 4.564c-0.050 0.005-0.098 0.014-0.143 0.027s-0.084 0.030-0.119 0.051c-0.032 0.022-0.058 0.048-0.078 0.078-0.018 0.031-0.027 0.065-0.027 0.102 0.002 0.050 0.018 0.086 0.048 0.108s0.066 0.032 0.105 0.032c0.041 0 0.080-0.009 0.116-0.027s0.068-0.041 0.097-0.070c0-0.018 0-0.035 0-0.051 0-0.018 0-0.036 0-0.054 0-0.032 0-0.065 0-0.097 0-0.034 0-0.067 0-0.1zM41.648 5.184v-0.175c0.050 0 0.086-0.010 0.108-0.030s0.035-0.048 0.040-0.084c0.007-0.038 0.011-0.080 0.011-0.127v-0.453c0-0.032 0.001-0.068 0.003-0.108 0.002-0.041 0.005-0.082 0.008-0.121-0.029 0.002-0.063 0.004-0.102 0.005-0.038 0-0.067 0.001-0.086 0.003v-0.205c0.083 0 0.153-0.005 0.21-0.013s0.102-0.020 0.135-0.032c0.034-0.013 0.057-0.024 0.070-0.035h0.132c0.004 0.023 0.005 0.040 0.005 0.051s0 0.022 0 0.032c0.002 0.009 0.005 0.026 0.011 0.051 0.036-0.029 0.077-0.054 0.124-0.075 0.047-0.023 0.093-0.041 0.14-0.054 0.047-0.014 0.088-0.022 0.124-0.022 0.165 0 0.282 0.048 0.35 0.143 0.070 0.093 0.105 0.244 0.105 0.453v0.361c0 0.025-0.001 0.061-0.003 0.108-0.002 0.045-0.005 0.088-0.008 0.129 0.030-0.004 0.063-0.005 0.097-0.005 0.034-0.002 0.060-0.003 0.078-0.003v0.205h-0.706v-0.175c0.050 0 0.086-0.010 0.108-0.030 0.023-0.020 0.038-0.048 0.043-0.084 0.007-0.038 0.011-0.080 0.011-0.127l-0.003-0.383c0-0.117-0.017-0.203-0.051-0.259-0.032-0.058-0.088-0.086-0.167-0.086-0.045 0-0.090 0.010-0.135 0.030-0.043 0.020-0.080 0.043-0.11 0.070 0 0.025 0 0.051 0 0.078 0 0.025 0 0.050 0 0.075v0.455c0 0.025-0.001 0.061-0.003 0.108-0.002 0.045-0.005 0.088-0.008 0.129 0.029-0.004 0.060-0.005 0.094-0.005 0.036-0.002 0.063-0.003 0.081-0.003v0.205h-0.706zM43.399 5.184v-0.175c0.050 0 0.086-0.010 0.108-0.030 0.023-0.020 0.038-0.048 0.043-0.084 0.007-0.038 0.011-0.080 0.011-0.127v-1.108c0-0.032 0.001-0.069 0.003-0.11 0.002-0.043 0.005-0.084 0.008-0.124-0.029 0.002-0.063 0.004-0.102 0.005-0.038 0-0.067 0.001-0.086 0.003v-0.205c0.083 0 0.152-0.005 0.208-0.013 0.057-0.009 0.103-0.020 0.137-0.032s0.057-0.024 0.067-0.035h0.148v1.229h0.129l0.194-0.224c0.023-0.025 0.042-0.047 0.057-0.065 0.016-0.018 0.032-0.034 0.048-0.048h-0.143v-0.205h0.606v0.172c-0.063 0.007-0.119 0.022-0.167 0.046-0.048 0.022-0.091 0.048-0.127 0.078-0.034 0.031-0.064 0.060-0.089 0.089l-0.172 0.194c0.027 0.013 0.053 0.031 0.078 0.057 0.027 0.023 0.059 0.060 0.097 0.11l0.181 0.237c0.011 0.013 0.024 0.030 0.040 0.051 0.018 0.022 0.038 0.043 0.059 0.065 0.022 0.020 0.045 0.037 0.070 0.051s0.051 0.022 0.078 0.022v0.175h-0.31c-0.057 0-0.108-0.020-0.151-0.059-0.043-0.041-0.092-0.1-0.148-0.175-0.032-0.043-0.067-0.089-0.102-0.137-0.034-0.050-0.067-0.097-0.097-0.14-0.029-0.045-0.052-0.080-0.070-0.105l-0.062 0.003v0.181c0 0.025-0.001 0.061-0.003 0.108-0.002 0.045-0.005 0.088-0.008 0.129 0.029-0.004 0.060-0.005 0.094-0.005 0.034-0.002 0.061-0.003 0.081-0.003v0.205h-0.709z"></path>
</symbol>
<symbol id="average-card" viewBox="0 0 51 32">
<path fill="#EFEFF2" d="M2.695 0h45.137c1.488 0 2.695 1.206 2.695 2.695v26.611c0 1.488-1.206 2.695-2.695 2.695h-45.137c-1.488 0-2.695-1.206-2.695-2.695v-26.611c0-1.488 1.206-2.695 2.695-2.695z"></path>
<path fill="#C4C4C4" d="M2.189 5.474c0-0.558 0.452-1.011 1.011-1.011h4.042c0.558 0 1.011 0.452 1.011 1.011v2.358c0 0.558-0.452 1.011-1.011 1.011h-4.042c-0.558 0-1.011-0.452-1.011-1.011v-2.358z"></path>
<path fill="#374078" d="M6.677 18.256c0.273 0 0.472 0.049 0.596 0.148 0.126 0.097 0.189 0.234 0.189 0.41 0 0.11-0.026 0.207-0.078 0.294-0.050 0.086-0.127 0.154-0.229 0.205-0.102 0.049-0.228 0.073-0.377 0.073-0.135 0-0.263-0.022-0.385-0.065-0.12-0.045-0.217-0.104-0.291-0.178l0.094-0.154c0.063 0.065 0.146 0.118 0.248 0.159 0.102 0.040 0.213 0.059 0.331 0.059 0.156 0 0.277-0.035 0.361-0.105 0.086-0.070 0.129-0.164 0.129-0.28 0-0.129-0.048-0.227-0.146-0.294-0.095-0.067-0.257-0.1-0.485-0.1h-0.402l0.097-0.946h1.032v0.172h-0.862l-0.065 0.601h0.243zM8.311 17.482v1.886h-0.194v-1.714h-0.445v-0.172h0.639zM9.624 18.239c0.124 0 0.234 0.023 0.329 0.070 0.097 0.047 0.172 0.113 0.226 0.199 0.054 0.084 0.081 0.183 0.081 0.296 0 0.115-0.028 0.216-0.084 0.305s-0.133 0.156-0.232 0.205c-0.097 0.047-0.207 0.070-0.329 0.070-0.25 0-0.441-0.082-0.574-0.245-0.133-0.165-0.199-0.398-0.199-0.698 0-0.21 0.036-0.388 0.108-0.534s0.172-0.255 0.302-0.329c0.129-0.075 0.28-0.113 0.453-0.113 0.187 0 0.336 0.034 0.447 0.102l-0.078 0.156c-0.090-0.059-0.212-0.089-0.366-0.089-0.208 0-0.372 0.067-0.49 0.199-0.119 0.131-0.178 0.323-0.178 0.574 0 0.045 0.003 0.096 0.008 0.154 0.047-0.102 0.121-0.181 0.224-0.237 0.102-0.057 0.22-0.086 0.353-0.086zM9.608 19.22c0.137 0 0.247-0.037 0.331-0.11 0.086-0.075 0.129-0.175 0.129-0.299s-0.043-0.223-0.129-0.296c-0.084-0.074-0.199-0.11-0.345-0.11-0.095 0-0.18 0.018-0.253 0.054-0.072 0.036-0.128 0.085-0.17 0.148s-0.062 0.133-0.062 0.21c0 0.072 0.019 0.138 0.057 0.199 0.040 0.061 0.097 0.11 0.172 0.148s0.165 0.057 0.269 0.057zM11.646 18.379c0.119 0.040 0.209 0.099 0.272 0.178 0.065 0.079 0.097 0.174 0.097 0.286 0 0.11-0.030 0.206-0.089 0.288-0.059 0.081-0.145 0.144-0.256 0.189-0.11 0.043-0.239 0.065-0.388 0.065-0.226 0-0.404-0.049-0.534-0.146s-0.194-0.229-0.194-0.396c0-0.113 0.031-0.208 0.092-0.286 0.063-0.079 0.154-0.138 0.272-0.178-0.097-0.038-0.171-0.092-0.221-0.162-0.050-0.072-0.075-0.156-0.075-0.253 0-0.153 0.059-0.274 0.178-0.364 0.12-0.090 0.281-0.135 0.482-0.135 0.133 0 0.249 0.021 0.348 0.062 0.101 0.040 0.179 0.097 0.234 0.172s0.084 0.164 0.084 0.264c0 0.097-0.026 0.181-0.078 0.253-0.052 0.070-0.127 0.124-0.224 0.162zM10.816 17.97c0 0.104 0.041 0.187 0.124 0.248s0.197 0.092 0.342 0.092c0.146 0 0.26-0.030 0.342-0.092 0.084-0.061 0.127-0.143 0.127-0.245 0-0.106-0.043-0.189-0.129-0.251-0.084-0.061-0.198-0.092-0.34-0.092-0.144 0-0.258 0.030-0.342 0.092-0.083 0.061-0.124 0.144-0.124 0.248zM11.282 19.22c0.167 0 0.297-0.034 0.391-0.102 0.095-0.068 0.143-0.161 0.143-0.278s-0.048-0.208-0.143-0.275c-0.093-0.068-0.224-0.102-0.391-0.102-0.165 0-0.296 0.034-0.391 0.102-0.093 0.067-0.14 0.158-0.14 0.275 0 0.119 0.047 0.212 0.14 0.28 0.093 0.067 0.224 0.1 0.391 0.1zM16.054 17.482v0.137l-0.79 1.749h-0.21l0.776-1.714h-0.97v0.353h-0.191v-0.525h1.385zM16.837 18.256c0.273 0 0.472 0.049 0.596 0.148 0.126 0.097 0.189 0.234 0.189 0.41 0 0.11-0.026 0.207-0.078 0.294-0.050 0.086-0.127 0.154-0.229 0.205-0.102 0.049-0.228 0.073-0.377 0.073-0.135 0-0.263-0.022-0.385-0.065-0.12-0.045-0.217-0.104-0.291-0.178l0.094-0.154c0.063 0.065 0.146 0.118 0.248 0.159 0.102 0.040 0.213 0.059 0.332 0.059 0.156 0 0.277-0.035 0.361-0.105 0.086-0.070 0.129-0.164 0.129-0.28 0-0.129-0.049-0.227-0.146-0.294-0.095-0.067-0.257-0.1-0.485-0.1h-0.402l0.097-0.946h1.032v0.172h-0.862l-0.065 0.601h0.243zM19.223 19.196v0.172h-1.323v-0.137l0.784-0.768c0.099-0.097 0.165-0.181 0.199-0.251 0.036-0.072 0.054-0.144 0.054-0.216 0-0.111-0.039-0.198-0.116-0.259-0.075-0.063-0.184-0.094-0.326-0.094-0.221 0-0.393 0.070-0.515 0.21l-0.137-0.119c0.074-0.086 0.167-0.153 0.28-0.199 0.115-0.047 0.244-0.070 0.388-0.070 0.192 0 0.344 0.046 0.455 0.137 0.113 0.090 0.17 0.214 0.17 0.372 0 0.097-0.022 0.19-0.065 0.28s-0.125 0.193-0.245 0.31l-0.641 0.631h1.037zM20.288 19.385c-0.146 0-0.276-0.039-0.391-0.116-0.113-0.077-0.202-0.188-0.267-0.331-0.063-0.146-0.094-0.316-0.094-0.512s0.032-0.366 0.094-0.509c0.065-0.146 0.154-0.257 0.267-0.334 0.115-0.077 0.245-0.116 0.391-0.116s0.275 0.039 0.388 0.116c0.115 0.077 0.205 0.189 0.269 0.334 0.065 0.144 0.097 0.313 0.097 0.509s-0.032 0.366-0.097 0.512c-0.065 0.144-0.154 0.254-0.269 0.331-0.113 0.077-0.243 0.116-0.388 0.116zM20.288 19.207c0.11 0 0.206-0.030 0.288-0.092 0.085-0.061 0.15-0.15 0.197-0.267s0.070-0.258 0.070-0.423-0.023-0.306-0.070-0.423c-0.047-0.117-0.112-0.206-0.197-0.267-0.083-0.061-0.179-0.092-0.288-0.092s-0.206 0.030-0.291 0.092c-0.083 0.061-0.147 0.15-0.194 0.267s-0.070 0.258-0.070 0.423 0.023 0.306 0.070 0.423c0.047 0.117 0.111 0.206 0.194 0.267 0.085 0.061 0.182 0.092 0.291 0.092zM25.048 19.196v0.172h-1.323v-0.137l0.784-0.768c0.099-0.097 0.165-0.181 0.199-0.251 0.036-0.072 0.054-0.144 0.054-0.216 0-0.111-0.039-0.198-0.116-0.259-0.075-0.063-0.184-0.094-0.326-0.094-0.221 0-0.392 0.070-0.515 0.21l-0.137-0.119c0.074-0.086 0.167-0.153 0.28-0.199 0.115-0.047 0.244-0.070 0.388-0.070 0.192 0 0.344 0.046 0.455 0.137 0.113 0.090 0.17 0.214 0.17 0.372 0 0.097-0.022 0.19-0.065 0.28s-0.125 0.193-0.245 0.31l-0.641 0.631h1.037zM26.661 19.196v0.172h-1.323v-0.137l0.784-0.768c0.099-0.097 0.165-0.181 0.199-0.251 0.036-0.072 0.054-0.144 0.054-0.216 0-0.111-0.039-0.198-0.116-0.259-0.075-0.063-0.184-0.094-0.326-0.094-0.221 0-0.392 0.070-0.515 0.21l-0.137-0.119c0.074-0.086 0.167-0.153 0.28-0.199 0.115-0.047 0.244-0.070 0.388-0.070 0.192 0 0.344 0.046 0.455 0.137 0.113 0.090 0.17 0.214 0.17 0.372 0 0.097-0.022 0.19-0.065 0.28s-0.125 0.193-0.245 0.31l-0.641 0.631h1.037zM27.508 17.482v1.886h-0.194v-1.714h-0.445v-0.172h0.639zM28.791 19.385c-0.146 0-0.276-0.039-0.391-0.116-0.113-0.077-0.202-0.188-0.267-0.331-0.063-0.146-0.094-0.316-0.094-0.512s0.032-0.366 0.094-0.509c0.065-0.146 0.154-0.257 0.267-0.334 0.115-0.077 0.245-0.116 0.391-0.116s0.275 0.039 0.388 0.116c0.115 0.077 0.205 0.189 0.269 0.334 0.065 0.144 0.097 0.313 0.097 0.509s-0.032 0.366-0.097 0.512c-0.065 0.144-0.154 0.254-0.269 0.331-0.113 0.077-0.243 0.116-0.388 0.116zM28.791 19.207c0.11 0 0.206-0.030 0.288-0.092 0.085-0.061 0.15-0.15 0.197-0.267s0.070-0.258 0.070-0.423-0.023-0.306-0.070-0.423c-0.047-0.117-0.112-0.206-0.197-0.267-0.083-0.061-0.179-0.092-0.288-0.092s-0.206 0.030-0.291 0.092c-0.083 0.061-0.147 0.15-0.194 0.267s-0.070 0.258-0.070 0.423 0.023 0.306 0.070 0.423c0.047 0.117 0.111 0.206 0.194 0.267 0.085 0.061 0.182 0.092 0.291 0.092zM34.13 18.379c0.119 0.040 0.209 0.099 0.272 0.178 0.065 0.079 0.097 0.174 0.097 0.286 0 0.11-0.030 0.206-0.089 0.288-0.059 0.081-0.145 0.144-0.256 0.189-0.11 0.043-0.239 0.065-0.388 0.065-0.226 0-0.404-0.049-0.534-0.146s-0.194-0.229-0.194-0.396c0-0.113 0.030-0.208 0.092-0.286 0.063-0.079 0.154-0.138 0.272-0.178-0.097-0.038-0.171-0.092-0.221-0.162-0.050-0.072-0.075-0.156-0.075-0.253 0-0.153 0.059-0.274 0.178-0.364 0.12-0.090 0.281-0.135 0.482-0.135 0.133 0 0.249 0.021 0.348 0.062 0.101 0.040 0.179 0.097 0.234 0.172s0.084 0.164 0.084 0.264c0 0.097-0.026 0.181-0.078 0.253-0.052 0.070-0.127 0.124-0.224 0.162zM33.3 17.97c0 0.104 0.041 0.187 0.124 0.248s0.197 0.092 0.342 0.092c0.146 0 0.26-0.030 0.342-0.092 0.084-0.061 0.127-0.143 0.127-0.245 0-0.106-0.043-0.189-0.129-0.251-0.084-0.061-0.198-0.092-0.34-0.092-0.144 0-0.258 0.030-0.342 0.092-0.083 0.061-0.124 0.144-0.124 0.248zM33.766 19.22c0.167 0 0.297-0.034 0.391-0.102 0.095-0.068 0.143-0.161 0.143-0.278s-0.048-0.208-0.143-0.275c-0.093-0.068-0.224-0.102-0.391-0.102-0.165 0-0.296 0.034-0.391 0.102-0.093 0.067-0.14 0.158-0.14 0.275 0 0.119 0.047 0.212 0.14 0.28 0.093 0.067 0.224 0.1 0.391 0.1zM35.436 17.466c0.25 0 0.441 0.083 0.574 0.248 0.133 0.164 0.199 0.395 0.199 0.695 0 0.21-0.036 0.388-0.108 0.534s-0.172 0.256-0.302 0.331c-0.129 0.074-0.28 0.11-0.453 0.11-0.187 0-0.336-0.034-0.447-0.102l0.078-0.156c0.090 0.059 0.212 0.089 0.366 0.089 0.208 0 0.372-0.066 0.49-0.197 0.119-0.133 0.178-0.325 0.178-0.577 0-0.047-0.003-0.098-0.008-0.154-0.047 0.102-0.121 0.182-0.224 0.24-0.102 0.056-0.22 0.084-0.353 0.084-0.124 0-0.234-0.023-0.331-0.070-0.095-0.047-0.17-0.112-0.224-0.197-0.054-0.086-0.081-0.186-0.081-0.299 0-0.115 0.028-0.216 0.084-0.305s0.132-0.155 0.229-0.202c0.099-0.049 0.209-0.073 0.331-0.073zM35.457 18.447c0.095 0 0.179-0.018 0.251-0.054 0.074-0.036 0.131-0.085 0.172-0.148s0.062-0.133 0.062-0.21c0-0.072-0.020-0.138-0.059-0.199-0.038-0.061-0.094-0.11-0.17-0.148s-0.165-0.057-0.269-0.057c-0.137 0-0.248 0.038-0.334 0.113-0.084 0.074-0.127 0.172-0.127 0.296s0.042 0.223 0.127 0.296c0.086 0.074 0.202 0.11 0.348 0.11zM37.159 17.466c0.25 0 0.441 0.083 0.574 0.248 0.133 0.164 0.199 0.395 0.199 0.695 0 0.21-0.036 0.388-0.108 0.534s-0.172 0.256-0.302 0.331c-0.129 0.074-0.28 0.11-0.453 0.11-0.187 0-0.336-0.034-0.447-0.102l0.078-0.156c0.090 0.059 0.212 0.089 0.366 0.089 0.208 0 0.372-0.066 0.49-0.197 0.119-0.133 0.178-0.325 0.178-0.577 0-0.047-0.003-0.098-0.008-0.154-0.047 0.102-0.121 0.182-0.224 0.24-0.102 0.056-0.22 0.084-0.353 0.084-0.124 0-0.234-0.023-0.331-0.070-0.095-0.047-0.17-0.112-0.224-0.197-0.054-0.086-0.081-0.186-0.081-0.299 0-0.115 0.028-0.216 0.084-0.305s0.132-0.155 0.229-0.202c0.099-0.049 0.209-0.073 0.331-0.073zM37.18 18.447c0.095 0 0.179-0.018 0.251-0.054 0.074-0.036 0.131-0.085 0.172-0.148s0.062-0.133 0.062-0.21c0-0.072-0.020-0.138-0.059-0.199-0.038-0.061-0.094-0.11-0.17-0.148s-0.165-0.057-0.269-0.057c-0.137 0-0.248 0.038-0.334 0.113-0.084 0.074-0.127 0.172-0.127 0.296s0.042 0.223 0.127 0.296c0.086 0.074 0.202 0.11 0.348 0.11zM39.046 19.385c-0.146 0-0.276-0.039-0.391-0.116-0.113-0.077-0.202-0.188-0.267-0.331-0.063-0.146-0.094-0.316-0.094-0.512s0.032-0.366 0.094-0.509c0.065-0.146 0.154-0.257 0.267-0.334 0.115-0.077 0.245-0.116 0.391-0.116s0.275 0.039 0.388 0.116c0.115 0.077 0.205 0.189 0.269 0.334 0.065 0.144 0.097 0.313 0.097 0.509s-0.032 0.366-0.097 0.512c-0.065 0.144-0.154 0.254-0.269 0.331-0.113 0.077-0.243 0.116-0.388 0.116zM39.046 19.207c0.11 0 0.206-0.030 0.288-0.092 0.084-0.061 0.15-0.15 0.197-0.267s0.070-0.258 0.070-0.423c0-0.165-0.023-0.306-0.070-0.423s-0.112-0.206-0.197-0.267c-0.083-0.061-0.179-0.092-0.288-0.092s-0.207 0.030-0.291 0.092c-0.083 0.061-0.147 0.15-0.194 0.267s-0.070 0.258-0.070 0.423c0 0.165 0.023 0.306 0.070 0.423s0.111 0.206 0.194 0.267c0.084 0.061 0.181 0.092 0.291 0.092z"></path>
<path fill="2C2A2A" d="M34.437 24.602c-0.109 0-0.207-0.029-0.293-0.087-0.085-0.058-0.152-0.141-0.2-0.249-0.047-0.109-0.071-0.237-0.071-0.384s0.024-0.274 0.071-0.382c0.048-0.109 0.115-0.193 0.2-0.251 0.086-0.058 0.184-0.087 0.293-0.087s0.206 0.029 0.291 0.087c0.086 0.058 0.154 0.141 0.202 0.251 0.048 0.108 0.073 0.235 0.073 0.382s-0.024 0.275-0.073 0.384c-0.048 0.108-0.116 0.191-0.202 0.249-0.085 0.058-0.182 0.087-0.291 0.087zM34.437 24.468c0.082 0 0.154-0.023 0.216-0.069 0.063-0.046 0.112-0.113 0.148-0.2s0.053-0.193 0.053-0.317c0-0.124-0.018-0.23-0.053-0.317s-0.084-0.154-0.148-0.2c-0.062-0.046-0.134-0.069-0.216-0.069s-0.155 0.023-0.218 0.069c-0.062 0.046-0.11 0.113-0.146 0.2s-0.053 0.193-0.053 0.317c0 0.124 0.018 0.23 0.053 0.317s0.084 0.154 0.146 0.2c0.063 0.046 0.136 0.069 0.218 0.069zM35.836 24.602c-0.109 0-0.207-0.029-0.293-0.087-0.085-0.058-0.152-0.141-0.2-0.249-0.047-0.109-0.071-0.237-0.071-0.384s0.024-0.274 0.071-0.382c0.048-0.109 0.115-0.193 0.2-0.251 0.086-0.058 0.184-0.087 0.293-0.087s0.206 0.029 0.291 0.087c0.086 0.058 0.154 0.141 0.202 0.251 0.048 0.108 0.073 0.235 0.073 0.382s-0.024 0.275-0.073 0.384c-0.048 0.108-0.116 0.191-0.202 0.249-0.085 0.058-0.182 0.087-0.291 0.087zM35.836 24.468c0.082 0 0.154-0.023 0.216-0.069 0.063-0.046 0.112-0.113 0.148-0.2s0.053-0.193 0.053-0.317c0-0.124-0.018-0.23-0.053-0.317s-0.084-0.154-0.148-0.2c-0.062-0.046-0.134-0.069-0.216-0.069s-0.155 0.023-0.218 0.069c-0.062 0.046-0.11 0.113-0.146 0.2s-0.053 0.193-0.053 0.317c0 0.124 0.018 0.23 0.053 0.317s0.084 0.154 0.146 0.2c0.063 0.046 0.136 0.069 0.218 0.069zM37.143 22.888h0.131l-0.667 1.904h-0.131l0.667-1.904zM37.894 24.602c-0.109 0-0.207-0.029-0.293-0.087-0.085-0.058-0.152-0.141-0.2-0.249-0.047-0.109-0.071-0.237-0.071-0.384s0.024-0.274 0.071-0.382c0.048-0.109 0.115-0.193 0.2-0.251 0.086-0.058 0.184-0.087 0.293-0.087s0.206 0.029 0.291 0.087c0.086 0.058 0.154 0.141 0.202 0.251 0.048 0.108 0.073 0.235 0.073 0.382s-0.024 0.275-0.073 0.384c-0.048 0.108-0.116 0.191-0.202 0.249-0.085 0.058-0.182 0.087-0.291 0.087zM37.894 24.468c0.082 0 0.154-0.023 0.216-0.069 0.063-0.046 0.112-0.113 0.148-0.2s0.053-0.193 0.053-0.317c0-0.124-0.018-0.23-0.053-0.317s-0.084-0.154-0.148-0.2c-0.062-0.046-0.134-0.069-0.216-0.069s-0.155 0.023-0.218 0.069c-0.062 0.046-0.11 0.113-0.146 0.2s-0.053 0.193-0.053 0.317c0 0.124 0.018 0.23 0.053 0.317s0.084 0.154 0.146 0.2c0.063 0.046 0.136 0.069 0.218 0.069zM39.292 24.602c-0.109 0-0.207-0.029-0.293-0.087-0.085-0.058-0.152-0.141-0.2-0.249-0.047-0.109-0.071-0.237-0.071-0.384s0.024-0.274 0.071-0.382c0.048-0.109 0.115-0.193 0.2-0.251 0.086-0.058 0.184-0.087 0.293-0.087s0.206 0.029 0.291 0.087c0.086 0.058 0.154 0.141 0.202 0.251 0.048 0.108 0.073 0.235 0.073 0.382s-0.024 0.275-0.073 0.384c-0.048 0.108-0.116 0.191-0.202 0.249-0.085 0.058-0.182 0.087-0.291 0.087zM39.292 24.468c0.082 0 0.154-0.023 0.216-0.069 0.063-0.046 0.112-0.113 0.148-0.2s0.053-0.193 0.053-0.317c0-0.124-0.018-0.23-0.053-0.317s-0.084-0.154-0.148-0.2c-0.062-0.046-0.134-0.069-0.216-0.069s-0.155 0.023-0.218 0.069c-0.062 0.046-0.11 0.113-0.146 0.2s-0.053 0.193-0.053 0.317c0 0.124 0.018 0.23 0.053 0.317s0.084 0.154 0.146 0.2c0.063 0.046 0.136 0.069 0.218 0.069z"></path>
<path fill="2C2A2A" d="M6.694 27.806v0.489h-0.148v-0.489l-0.566-0.926h0.16l0.485 0.794 0.485-0.794h0.15l-0.566 0.926zM8.11 28.307c-0.14 0-0.267-0.031-0.382-0.093-0.113-0.063-0.202-0.15-0.267-0.259-0.063-0.109-0.095-0.232-0.095-0.368s0.032-0.259 0.095-0.368c0.065-0.109 0.154-0.195 0.267-0.257 0.115-0.063 0.242-0.095 0.382-0.095s0.266 0.031 0.378 0.093c0.113 0.062 0.202 0.148 0.267 0.259 0.065 0.109 0.097 0.232 0.097 0.368s-0.032 0.259-0.097 0.37c-0.065 0.109-0.154 0.195-0.267 0.257-0.112 0.062-0.238 0.093-0.378 0.093zM8.11 28.173c0.112 0 0.213-0.025 0.303-0.075 0.090-0.051 0.161-0.121 0.212-0.21 0.051-0.090 0.077-0.191 0.077-0.301s-0.026-0.21-0.077-0.299c-0.051-0.090-0.122-0.16-0.212-0.21-0.090-0.051-0.191-0.077-0.303-0.077s-0.214 0.026-0.305 0.077c-0.090 0.050-0.162 0.12-0.214 0.21-0.051 0.089-0.077 0.189-0.077 0.299s0.026 0.211 0.077 0.301c0.053 0.089 0.124 0.159 0.214 0.21 0.092 0.050 0.193 0.075 0.305 0.075zM9.818 28.307c-0.183 0-0.326-0.053-0.428-0.158s-0.154-0.258-0.154-0.459v-0.81h0.15v0.804c0 0.164 0.037 0.287 0.111 0.368s0.181 0.121 0.321 0.121c0.141 0 0.249-0.040 0.323-0.121s0.111-0.203 0.111-0.368v-0.804h0.146v0.81c0 0.201-0.051 0.354-0.154 0.459-0.101 0.105-0.243 0.158-0.426 0.158zM11.875 28.295l-0.323-0.455c-0.036 0.004-0.074 0.006-0.113 0.006h-0.38v0.449h-0.15v-1.415h0.53c0.181 0 0.322 0.043 0.424 0.129s0.154 0.205 0.154 0.356c0 0.11-0.028 0.204-0.085 0.281-0.055 0.075-0.135 0.13-0.238 0.164l0.346 0.485h-0.164zM11.434 27.719c0.14 0 0.247-0.031 0.321-0.093s0.111-0.149 0.111-0.261c0-0.115-0.037-0.202-0.111-0.263-0.074-0.062-0.181-0.093-0.321-0.093h-0.376v0.709h0.376zM14.202 26.88v1.415h-0.123l-0.909-1.148v1.148h-0.15v-1.415h0.123l0.912 1.148v-1.148h0.148zM15.612 27.917h-0.788l-0.17 0.378h-0.156l0.647-1.415h0.148l0.647 1.415h-0.158l-0.17-0.378zM15.557 27.796l-0.34-0.76-0.34 0.76h0.679zM17.703 26.88v1.415h-0.143v-1.132l-0.556 0.952h-0.071l-0.556-0.946v1.126h-0.143v-1.415h0.123l0.614 1.049 0.608-1.049h0.123zM19.225 28.165v0.129h-1v-1.415h0.97v0.129h-0.821v0.503h0.732v0.127h-0.732v0.525h0.851z"></path>
<path fill="#374078" d="M33.434 6.482c-0.083 0-0.149-0.004-0.199-0.011-0.048-0.005-0.092-0.019-0.132-0.040-0.038-0.020-0.082-0.051-0.132-0.094-0.075-0.068-0.141-0.133-0.197-0.194-0.054-0.059-0.108-0.109-0.162-0.148-0.054-0.038-0.119-0.057-0.194-0.057-0.165 0-0.306-0.029-0.423-0.086-0.115-0.059-0.208-0.137-0.28-0.232-0.072-0.097-0.125-0.204-0.159-0.321-0.032-0.117-0.049-0.233-0.049-0.348 0-0.113 0.019-0.227 0.057-0.342 0.040-0.117 0.098-0.224 0.175-0.321 0.079-0.097 0.178-0.175 0.296-0.234s0.258-0.089 0.418-0.089c0.164 0 0.304 0.030 0.423 0.089s0.216 0.138 0.291 0.237c0.075 0.097 0.131 0.203 0.167 0.318s0.054 0.229 0.054 0.342c0 0.090-0.013 0.181-0.038 0.275-0.025 0.092-0.063 0.181-0.113 0.267-0.050 0.084-0.114 0.161-0.191 0.229-0.075 0.066-0.164 0.119-0.264 0.159 0.052 0 0.098 0.004 0.137 0.011 0.041 0.007 0.082 0.021 0.121 0.040 0.040 0.022 0.083 0.055 0.129 0.1 0.063 0.057 0.112 0.104 0.148 0.14 0.038 0.036 0.068 0.063 0.092 0.081 0.023 0.020 0.045 0.032 0.065 0.038 0.022 0.007 0.047 0.011 0.075 0.011v0.181h-0.116zM32.472 5.741c0.093 0 0.172-0.022 0.234-0.067 0.063-0.047 0.113-0.107 0.151-0.181s0.065-0.154 0.081-0.24c0.018-0.088 0.027-0.173 0.027-0.256 0-0.124-0.011-0.237-0.032-0.34s-0.055-0.19-0.1-0.264c-0.045-0.075-0.102-0.133-0.172-0.172-0.068-0.041-0.149-0.061-0.243-0.059s-0.172 0.027-0.234 0.075c-0.063 0.047-0.113 0.108-0.151 0.183-0.036 0.074-0.062 0.154-0.078 0.243s-0.024 0.173-0.024 0.256c0 0.084 0.009 0.174 0.027 0.269 0.020 0.095 0.050 0.185 0.092 0.269s0.096 0.153 0.164 0.205c0.070 0.052 0.156 0.078 0.259 0.078zM34.233 5.938c-0.108 0-0.195-0.021-0.261-0.062-0.065-0.041-0.112-0.106-0.143-0.194-0.029-0.088-0.043-0.201-0.043-0.34v-0.31c0-0.032 0.001-0.069 0.003-0.11 0.002-0.043 0.004-0.084 0.005-0.124-0.029 0.002-0.063 0.004-0.102 0.005-0.038 0-0.066 0.001-0.086 0.003v-0.205h0.027c0.111 0 0.199-0.009 0.264-0.027s0.106-0.036 0.124-0.054h0.148v0.825c0 0.117 0.015 0.204 0.046 0.261 0.031 0.056 0.079 0.084 0.146 0.084 0.047 0 0.093-0.013 0.14-0.038 0.048-0.027 0.088-0.057 0.119-0.092v-0.528c0-0.032 0.001-0.069 0.003-0.11 0.002-0.043 0.005-0.084 0.008-0.124-0.029 0.002-0.063 0.004-0.102 0.005-0.038 0-0.066 0.001-0.086 0.003v-0.205h0.065c0.085 0 0.159-0.009 0.224-0.027 0.065-0.020 0.106-0.038 0.124-0.054h0.148v0.94c0 0.025-0.001 0.061-0.003 0.108-0.002 0.045-0.004 0.088-0.008 0.129 0.029-0.004 0.060-0.005 0.094-0.005 0.036-0.002 0.063-0.003 0.081-0.003v0.205h-0.512c-0.002-0.023-0.004-0.047-0.008-0.070-0.002-0.023-0.004-0.047-0.008-0.070-0.056 0.047-0.116 0.089-0.181 0.127-0.063 0.038-0.138 0.057-0.224 0.057zM36.042 5.938c-0.077 0-0.153-0.010-0.226-0.030s-0.131-0.045-0.172-0.075l0.005 0.081h-0.205l-0.011-0.463h0.175c0.005 0.054 0.027 0.103 0.065 0.148s0.087 0.081 0.148 0.108c0.061 0.025 0.129 0.038 0.205 0.038 0.030 0 0.059-0.005 0.086-0.013 0.029-0.009 0.052-0.023 0.070-0.043 0.020-0.022 0.030-0.048 0.030-0.078 0-0.034-0.013-0.062-0.038-0.084-0.023-0.022-0.058-0.042-0.105-0.062-0.045-0.020-0.102-0.042-0.17-0.067-0.056-0.022-0.112-0.044-0.17-0.067-0.056-0.023-0.108-0.051-0.156-0.084-0.047-0.034-0.084-0.075-0.113-0.124-0.029-0.050-0.043-0.111-0.043-0.183 0-0.052 0.010-0.103 0.030-0.154 0.020-0.052 0.050-0.099 0.092-0.14 0.041-0.043 0.093-0.077 0.156-0.102 0.065-0.025 0.141-0.038 0.229-0.038 0.048 0 0.103 0.008 0.164 0.024 0.063 0.014 0.116 0.037 0.159 0.067v-0.078h0.205v0.477h-0.175c-0.011-0.063-0.033-0.117-0.067-0.162-0.032-0.045-0.075-0.079-0.127-0.102-0.052-0.025-0.11-0.038-0.175-0.038-0.045 0-0.086 0.011-0.124 0.032-0.036 0.022-0.054 0.058-0.054 0.11 0 0.041 0.014 0.075 0.043 0.1 0.029 0.023 0.068 0.043 0.119 0.059s0.106 0.035 0.167 0.057c0.092 0.031 0.172 0.066 0.243 0.108 0.072 0.041 0.129 0.092 0.17 0.151 0.041 0.057 0.062 0.128 0.062 0.213 0 0.093-0.023 0.171-0.070 0.232s-0.108 0.107-0.183 0.137c-0.074 0.031-0.153 0.046-0.237 0.046zM37.56 5.895c-0.004-0.025-0.006-0.046-0.008-0.062 0-0.018-0.001-0.039-0.003-0.062-0.061 0.061-0.126 0.104-0.194 0.129s-0.137 0.038-0.208 0.038c-0.115 0-0.205-0.034-0.269-0.102s-0.097-0.154-0.097-0.256c0-0.086 0.022-0.16 0.065-0.221 0.045-0.061 0.103-0.11 0.175-0.148 0.074-0.040 0.154-0.069 0.243-0.089 0.090-0.022 0.18-0.034 0.269-0.038v-0.14c0-0.047-0.006-0.089-0.019-0.127-0.011-0.038-0.031-0.067-0.059-0.089-0.027-0.022-0.066-0.031-0.116-0.030-0.034 0.002-0.067 0.009-0.1 0.022s-0.060 0.031-0.084 0.054c0.014 0.016 0.023 0.034 0.027 0.054 0.004 0.018 0.005 0.034 0.005 0.048 0 0.036-0.014 0.074-0.043 0.113-0.029 0.038-0.075 0.056-0.137 0.054-0.054-0.002-0.095-0.021-0.124-0.057s-0.043-0.078-0.043-0.127c0-0.072 0.025-0.134 0.075-0.186 0.052-0.054 0.121-0.095 0.208-0.124 0.086-0.031 0.181-0.046 0.286-0.046 0.158 0 0.28 0.041 0.366 0.124 0.088 0.081 0.132 0.211 0.132 0.391 0 0.061 0 0.113 0 0.156s-0.001 0.086-0.003 0.129c0 0.043 0 0.095 0 0.156 0 0.025-0.001 0.061-0.003 0.108-0.002 0.045-0.005 0.088-0.008 0.129 0.030-0.004 0.063-0.005 0.097-0.005 0.034-0.002 0.060-0.003 0.078-0.003v0.205h-0.509zM37.53 5.275c-0.050 0.005-0.098 0.014-0.143 0.027s-0.085 0.030-0.119 0.051c-0.032 0.022-0.058 0.048-0.078 0.078-0.018 0.031-0.027 0.065-0.027 0.102 0.002 0.050 0.018 0.086 0.048 0.108s0.066 0.032 0.105 0.032c0.041 0 0.080-0.009 0.116-0.027s0.068-0.041 0.097-0.070c0-0.018 0-0.035 0-0.051 0-0.018 0-0.036 0-0.054 0-0.032 0-0.065 0-0.097 0-0.034 0-0.067 0-0.1zM38.316 5.895v-0.178c0.041-0.002 0.075-0.007 0.102-0.016 0.029-0.009 0.050-0.030 0.065-0.062 0.016-0.032 0.024-0.084 0.024-0.156v-1.032c0-0.048 0.001-0.095 0.003-0.14 0.004-0.045 0.006-0.079 0.008-0.102-0.029 0.002-0.065 0.004-0.108 0.005-0.043 0-0.074 0.001-0.094 0.003v-0.207c0.124-0.002 0.248-0.003 0.372-0.003 0.126 0 0.251-0.001 0.375-0.003 0.216-0.002 0.386 0.039 0.512 0.121 0.128 0.081 0.187 0.204 0.178 0.369-0.004 0.052-0.020 0.103-0.048 0.154-0.029 0.048-0.072 0.093-0.129 0.132-0.056 0.040-0.126 0.071-0.21 0.094v0.003c0.18 0.029 0.312 0.089 0.396 0.181 0.085 0.090 0.127 0.19 0.127 0.302 0 0.117-0.029 0.216-0.086 0.296-0.056 0.079-0.133 0.139-0.232 0.181-0.099 0.040-0.211 0.059-0.337 0.059h-0.916zM38.887 5.703c0.032 0 0.063 0 0.092 0s0.058 0 0.086 0c0.029-0.002 0.057-0.003 0.084-0.003 0.11-0.005 0.19-0.040 0.24-0.105s0.075-0.146 0.075-0.245c0-0.083-0.017-0.147-0.051-0.194-0.034-0.048-0.078-0.083-0.132-0.102-0.052-0.020-0.107-0.030-0.164-0.030-0.045 0-0.084 0-0.116 0s-0.066 0.001-0.102 0.003v0.439c0 0.048-0.001 0.094-0.003 0.137s-0.004 0.076-0.008 0.1zM38.898 4.836l0.14-0.003c0.075-0.002 0.135-0.019 0.178-0.051 0.045-0.032 0.076-0.075 0.094-0.129 0.020-0.056 0.030-0.116 0.030-0.181 0-0.072-0.014-0.128-0.043-0.167-0.029-0.041-0.065-0.071-0.108-0.089s-0.088-0.026-0.135-0.024c-0.029 0-0.055 0.005-0.078 0.013s-0.042 0.030-0.057 0.062c-0.014 0.031-0.022 0.081-0.022 0.151v0.418zM40.903 5.895c-0.004-0.025-0.006-0.046-0.008-0.062 0-0.018-0.001-0.039-0.003-0.062-0.061 0.061-0.126 0.104-0.194 0.129s-0.137 0.038-0.208 0.038c-0.115 0-0.205-0.034-0.269-0.102s-0.097-0.154-0.097-0.256c0-0.086 0.022-0.16 0.065-0.221 0.045-0.061 0.103-0.11 0.175-0.148 0.074-0.040 0.155-0.069 0.243-0.089 0.090-0.022 0.18-0.034 0.269-0.038v-0.14c0-0.047-0.006-0.089-0.019-0.127-0.011-0.038-0.030-0.067-0.059-0.089-0.027-0.022-0.066-0.031-0.116-0.030-0.034 0.002-0.067 0.009-0.1 0.022s-0.060 0.031-0.084 0.054c0.014 0.016 0.023 0.034 0.027 0.054 0.004 0.018 0.005 0.034 0.005 0.048 0 0.036-0.014 0.074-0.043 0.113-0.029 0.038-0.074 0.056-0.137 0.054-0.054-0.002-0.095-0.021-0.124-0.057s-0.043-0.078-0.043-0.127c0-0.072 0.025-0.134 0.075-0.186 0.052-0.054 0.121-0.095 0.208-0.124 0.086-0.031 0.182-0.046 0.286-0.046 0.158 0 0.28 0.041 0.366 0.124 0.088 0.081 0.132 0.211 0.132 0.391 0 0.061 0 0.113 0 0.156s-0.001 0.086-0.003 0.129c0 0.043 0 0.095 0 0.156 0 0.025-0.001 0.061-0.003 0.108-0.002 0.045-0.004 0.088-0.008 0.129 0.031-0.004 0.063-0.005 0.097-0.005 0.034-0.002 0.060-0.003 0.078-0.003v0.205h-0.509zM40.874 5.275c-0.050 0.005-0.098 0.014-0.143 0.027s-0.084 0.030-0.119 0.051c-0.032 0.022-0.058 0.048-0.078 0.078-0.018 0.031-0.027 0.065-0.027 0.102 0.002 0.050 0.018 0.086 0.048 0.108s0.066 0.032 0.105 0.032c0.041 0 0.080-0.009 0.116-0.027s0.068-0.041 0.097-0.070c0-0.018 0-0.035 0-0.051 0-0.018 0-0.036 0-0.054 0-0.032 0-0.065 0-0.097 0-0.034 0-0.067 0-0.1zM41.648 5.895v-0.175c0.050 0 0.086-0.010 0.108-0.030s0.035-0.048 0.040-0.084c0.007-0.038 0.011-0.080 0.011-0.127v-0.453c0-0.032 0.001-0.068 0.003-0.108 0.002-0.041 0.005-0.082 0.008-0.121-0.029 0.002-0.063 0.004-0.102 0.005-0.038 0-0.067 0.001-0.086 0.003v-0.205c0.083 0 0.153-0.005 0.21-0.013s0.102-0.020 0.135-0.032c0.034-0.013 0.057-0.024 0.070-0.035h0.132c0.004 0.023 0.005 0.040 0.005 0.051s0 0.022 0 0.032c0.002 0.009 0.005 0.026 0.011 0.051 0.036-0.029 0.077-0.054 0.124-0.075 0.047-0.023 0.093-0.041 0.14-0.054 0.047-0.014 0.088-0.022 0.124-0.022 0.165 0 0.282 0.048 0.35 0.143 0.070 0.093 0.105 0.244 0.105 0.453v0.361c0 0.025-0.001 0.061-0.003 0.108-0.002 0.045-0.005 0.088-0.008 0.129 0.030-0.004 0.063-0.005 0.097-0.005 0.034-0.002 0.060-0.003 0.078-0.003v0.205h-0.706v-0.175c0.050 0 0.086-0.010 0.108-0.030 0.023-0.020 0.038-0.048 0.043-0.084 0.007-0.038 0.011-0.080 0.011-0.127l-0.003-0.383c0-0.117-0.017-0.203-0.051-0.259-0.032-0.057-0.088-0.086-0.167-0.086-0.045 0-0.090 0.010-0.135 0.030-0.043 0.020-0.080 0.043-0.11 0.070 0 0.025 0 0.051 0 0.078 0 0.025 0 0.050 0 0.075v0.455c0 0.025-0.001 0.061-0.003 0.108-0.002 0.045-0.005 0.088-0.008 0.129 0.029-0.004 0.060-0.005 0.094-0.005 0.036-0.002 0.063-0.003 0.081-0.003v0.205h-0.706zM43.399 5.895v-0.175c0.050 0 0.086-0.010 0.108-0.030 0.023-0.020 0.038-0.048 0.043-0.084 0.007-0.038 0.011-0.080 0.011-0.127v-1.108c0-0.032 0.001-0.069 0.003-0.11 0.002-0.043 0.005-0.084 0.008-0.124-0.029 0.002-0.063 0.004-0.102 0.005-0.038 0-0.067 0.001-0.086 0.003v-0.205c0.083 0 0.152-0.005 0.208-0.013 0.057-0.009 0.103-0.020 0.137-0.032s0.057-0.024 0.067-0.035h0.148v1.229h0.129l0.194-0.224c0.023-0.025 0.042-0.047 0.057-0.065 0.016-0.018 0.032-0.034 0.048-0.048h-0.143v-0.205h0.606v0.172c-0.063 0.007-0.119 0.022-0.167 0.046-0.048 0.022-0.091 0.048-0.127 0.078-0.034 0.031-0.064 0.060-0.089 0.089l-0.172 0.194c0.027 0.013 0.053 0.031 0.078 0.057 0.027 0.023 0.059 0.060 0.097 0.11l0.181 0.237c0.011 0.013 0.024 0.030 0.040 0.051 0.018 0.022 0.038 0.043 0.059 0.065 0.022 0.020 0.045 0.037 0.070 0.051s0.051 0.022 0.078 0.022v0.175h-0.31c-0.057 0-0.108-0.020-0.151-0.059-0.043-0.041-0.092-0.1-0.148-0.175-0.032-0.043-0.067-0.089-0.102-0.137-0.034-0.050-0.067-0.097-0.097-0.14-0.029-0.045-0.052-0.080-0.070-0.105l-0.062 0.003v0.181c0 0.025-0.001 0.061-0.003 0.108-0.002 0.045-0.005 0.088-0.008 0.129 0.029-0.004 0.060-0.005 0.094-0.005 0.034-0.002 0.061-0.003 0.081-0.003v0.205h-0.709z"></path>
</symbol>
<symbol id="n-card" viewBox="0 0 51 32">
<path fill="#2C2A2A" d="M2.695 0h45.137c1.488 0 2.695 1.206 2.695 2.695v26.611c0 1.488-1.206 2.695-2.695 2.695h-45.137c-1.488 0-2.695-1.206-2.695-2.695v-26.611c0-1.488 1.206-2.695 2.695-2.695z"></path>
<path fill="#C4C4C4" d="M4.463 5.474c0-0.558 0.452-1.011 1.011-1.011h4.042c0.558 0 1.011 0.452 1.011 1.011v2.358c0 0.558-0.452 1.011-1.011 1.011h-4.042c-0.558 0-1.011-0.452-1.011-1.011v-2.358z"></path>
<path fill="#F5F5F5" d="M8.95 18.256c0.273 0 0.472 0.049 0.596 0.148 0.126 0.097 0.189 0.234 0.189 0.41 0 0.11-0.026 0.207-0.078 0.294-0.050 0.086-0.127 0.154-0.229 0.205-0.102 0.049-0.228 0.073-0.377 0.073-0.135 0-0.263-0.022-0.385-0.065-0.12-0.045-0.217-0.104-0.291-0.178l0.094-0.154c0.063 0.065 0.146 0.118 0.248 0.159 0.102 0.040 0.213 0.059 0.331 0.059 0.156 0 0.277-0.035 0.361-0.105 0.086-0.070 0.129-0.164 0.129-0.28 0-0.129-0.049-0.227-0.146-0.294-0.095-0.067-0.257-0.1-0.485-0.1h-0.402l0.097-0.946h1.032v0.172h-0.862l-0.065 0.601h0.243zM10.585 17.482v1.886h-0.194v-1.714h-0.445v-0.172h0.639zM11.898 18.239c0.124 0 0.234 0.023 0.329 0.070 0.097 0.047 0.172 0.113 0.226 0.199 0.054 0.084 0.081 0.183 0.081 0.296 0 0.115-0.028 0.216-0.084 0.305s-0.133 0.156-0.232 0.205c-0.097 0.047-0.207 0.070-0.329 0.070-0.25 0-0.441-0.082-0.574-0.245-0.133-0.165-0.199-0.398-0.199-0.698 0-0.21 0.036-0.388 0.108-0.534s0.172-0.255 0.302-0.329c0.129-0.075 0.28-0.113 0.453-0.113 0.187 0 0.336 0.034 0.447 0.102l-0.078 0.156c-0.090-0.059-0.212-0.089-0.366-0.089-0.208 0-0.372 0.067-0.49 0.199-0.119 0.131-0.178 0.323-0.178 0.574 0 0.045 0.003 0.096 0.008 0.154 0.047-0.102 0.121-0.181 0.224-0.237 0.102-0.057 0.22-0.086 0.353-0.086zM11.882 19.22c0.137 0 0.247-0.037 0.331-0.11 0.086-0.075 0.129-0.175 0.129-0.299s-0.043-0.223-0.129-0.296c-0.084-0.074-0.199-0.11-0.345-0.11-0.095 0-0.18 0.018-0.253 0.054-0.072 0.036-0.128 0.085-0.17 0.148s-0.062 0.133-0.062 0.21c0 0.072 0.019 0.138 0.057 0.199 0.040 0.061 0.097 0.11 0.172 0.148s0.165 0.057 0.269 0.057zM13.92 18.379c0.119 0.040 0.209 0.099 0.272 0.178 0.065 0.079 0.097 0.174 0.097 0.286 0 0.11-0.030 0.206-0.089 0.288-0.059 0.081-0.145 0.144-0.256 0.189-0.11 0.043-0.239 0.065-0.388 0.065-0.226 0-0.404-0.049-0.534-0.146s-0.194-0.229-0.194-0.396c0-0.113 0.031-0.208 0.092-0.286 0.063-0.079 0.154-0.138 0.272-0.178-0.097-0.038-0.171-0.092-0.221-0.162-0.050-0.072-0.075-0.156-0.075-0.253 0-0.153 0.059-0.274 0.178-0.364 0.12-0.090 0.281-0.135 0.482-0.135 0.133 0 0.249 0.021 0.348 0.062 0.101 0.040 0.179 0.097 0.234 0.172s0.084 0.164 0.084 0.264c0 0.097-0.026 0.181-0.078 0.253-0.052 0.070-0.127 0.124-0.224 0.162zM13.090 17.97c0 0.104 0.041 0.187 0.124 0.248s0.197 0.092 0.342 0.092c0.146 0 0.26-0.030 0.342-0.092 0.084-0.061 0.127-0.143 0.127-0.245 0-0.106-0.043-0.189-0.129-0.251-0.084-0.061-0.198-0.092-0.34-0.092-0.144 0-0.258 0.030-0.342 0.092-0.083 0.061-0.124 0.144-0.124 0.248zM13.556 19.22c0.167 0 0.297-0.034 0.391-0.102 0.095-0.068 0.143-0.161 0.143-0.278s-0.048-0.208-0.143-0.275c-0.093-0.068-0.224-0.102-0.391-0.102-0.165 0-0.296 0.034-0.391 0.102-0.093 0.067-0.14 0.158-0.14 0.275 0 0.119 0.047 0.212 0.14 0.28 0.093 0.067 0.224 0.1 0.391 0.1zM18.328 17.482v0.137l-0.79 1.749h-0.21l0.776-1.714h-0.97v0.353h-0.191v-0.525h1.385zM19.11 18.256c0.273 0 0.472 0.049 0.596 0.148 0.126 0.097 0.189 0.234 0.189 0.41 0 0.11-0.026 0.207-0.078 0.294-0.050 0.086-0.127 0.154-0.229 0.205-0.102 0.049-0.228 0.073-0.377 0.073-0.135 0-0.263-0.022-0.385-0.065-0.12-0.045-0.217-0.104-0.291-0.178l0.094-0.154c0.063 0.065 0.146 0.118 0.248 0.159 0.102 0.040 0.213 0.059 0.331 0.059 0.156 0 0.277-0.035 0.361-0.105 0.086-0.070 0.129-0.164 0.129-0.28 0-0.129-0.049-0.227-0.146-0.294-0.095-0.067-0.257-0.1-0.485-0.1h-0.402l0.097-0.946h1.032v0.172h-0.862l-0.065 0.601h0.243zM21.497 19.196v0.172h-1.323v-0.137l0.784-0.768c0.099-0.097 0.165-0.181 0.199-0.251 0.036-0.072 0.054-0.144 0.054-0.216 0-0.111-0.039-0.198-0.116-0.259-0.075-0.063-0.184-0.094-0.326-0.094-0.221 0-0.393 0.070-0.515 0.21l-0.137-0.119c0.074-0.086 0.167-0.153 0.28-0.199 0.115-0.047 0.244-0.070 0.388-0.070 0.192 0 0.344 0.046 0.455 0.137 0.113 0.090 0.17 0.214 0.17 0.372 0 0.097-0.022 0.19-0.065 0.28s-0.125 0.193-0.245 0.31l-0.641 0.631h1.037zM22.562 19.385c-0.146 0-0.276-0.039-0.391-0.116-0.113-0.077-0.202-0.188-0.267-0.331-0.063-0.146-0.094-0.316-0.094-0.512s0.032-0.366 0.094-0.509c0.065-0.146 0.154-0.257 0.267-0.334 0.115-0.077 0.245-0.116 0.391-0.116s0.275 0.039 0.388 0.116c0.115 0.077 0.205 0.189 0.269 0.334 0.065 0.144 0.097 0.313 0.097 0.509s-0.032 0.366-0.097 0.512c-0.065 0.144-0.154 0.254-0.269 0.331-0.113 0.077-0.243 0.116-0.388 0.116zM22.562 19.207c0.11 0 0.206-0.030 0.288-0.092 0.085-0.061 0.15-0.15 0.197-0.267s0.070-0.258 0.070-0.423-0.023-0.306-0.070-0.423c-0.047-0.117-0.112-0.206-0.197-0.267-0.083-0.061-0.179-0.092-0.288-0.092s-0.206 0.030-0.291 0.092c-0.083 0.061-0.147 0.15-0.194 0.267s-0.070 0.258-0.070 0.423 0.023 0.306 0.070 0.423c0.047 0.117 0.111 0.206 0.194 0.267 0.085 0.061 0.182 0.092 0.291 0.092zM27.322 19.196v0.172h-1.323v-0.137l0.784-0.768c0.099-0.097 0.165-0.181 0.199-0.251 0.036-0.072 0.054-0.144 0.054-0.216 0-0.111-0.039-0.198-0.116-0.259-0.075-0.063-0.184-0.094-0.326-0.094-0.221 0-0.392 0.070-0.515 0.21l-0.137-0.119c0.074-0.086 0.167-0.153 0.28-0.199 0.115-0.047 0.244-0.070 0.388-0.070 0.192 0 0.344 0.046 0.455 0.137 0.113 0.090 0.17 0.214 0.17 0.372 0 0.097-0.022 0.19-0.065 0.28s-0.125 0.193-0.245 0.31l-0.641 0.631h1.037zM28.934 19.196v0.172h-1.323v-0.137l0.784-0.768c0.099-0.097 0.165-0.181 0.199-0.251 0.036-0.072 0.054-0.144 0.054-0.216 0-0.111-0.039-0.198-0.116-0.259-0.075-0.063-0.184-0.094-0.326-0.094-0.221 0-0.392 0.070-0.515 0.21l-0.137-0.119c0.074-0.086 0.167-0.153 0.28-0.199 0.115-0.047 0.244-0.070 0.388-0.070 0.192 0 0.344 0.046 0.455 0.137 0.113 0.090 0.17 0.214 0.17 0.372 0 0.097-0.022 0.19-0.065 0.28s-0.125 0.193-0.245 0.31l-0.641 0.631h1.037zM29.781 17.482v1.886h-0.194v-1.714h-0.445v-0.172h0.639zM31.065 19.385c-0.146 0-0.276-0.039-0.391-0.116-0.113-0.077-0.202-0.188-0.267-0.331-0.063-0.146-0.094-0.316-0.094-0.512s0.032-0.366 0.094-0.509c0.065-0.146 0.154-0.257 0.267-0.334 0.115-0.077 0.245-0.116 0.391-0.116s0.275 0.039 0.388 0.116c0.115 0.077 0.205 0.189 0.269 0.334 0.065 0.144 0.097 0.313 0.097 0.509s-0.032 0.366-0.097 0.512c-0.065 0.144-0.154 0.254-0.269 0.331-0.113 0.077-0.243 0.116-0.388 0.116zM31.065 19.207c0.11 0 0.206-0.030 0.288-0.092 0.085-0.061 0.15-0.15 0.197-0.267s0.070-0.258 0.070-0.423-0.023-0.306-0.070-0.423c-0.047-0.117-0.112-0.206-0.197-0.267-0.083-0.061-0.179-0.092-0.288-0.092s-0.206 0.030-0.291 0.092c-0.083 0.061-0.147 0.15-0.194 0.267s-0.070 0.258-0.070 0.423 0.023 0.306 0.070 0.423c0.047 0.117 0.111 0.206 0.194 0.267 0.085 0.061 0.182 0.092 0.291 0.092zM36.403 18.379c0.119 0.040 0.209 0.099 0.272 0.178 0.065 0.079 0.097 0.174 0.097 0.286 0 0.11-0.030 0.206-0.089 0.288-0.059 0.081-0.145 0.144-0.256 0.189-0.11 0.043-0.239 0.065-0.388 0.065-0.226 0-0.404-0.049-0.534-0.146s-0.194-0.229-0.194-0.396c0-0.113 0.030-0.208 0.092-0.286 0.063-0.079 0.154-0.138 0.272-0.178-0.097-0.038-0.171-0.092-0.221-0.162-0.050-0.072-0.075-0.156-0.075-0.253 0-0.153 0.059-0.274 0.178-0.364 0.12-0.090 0.281-0.135 0.482-0.135 0.133 0 0.249 0.021 0.348 0.062 0.101 0.040 0.179 0.097 0.234 0.172s0.084 0.164 0.084 0.264c0 0.097-0.026 0.181-0.078 0.253-0.052 0.070-0.127 0.124-0.224 0.162zM35.573 17.97c0 0.104 0.041 0.187 0.124 0.248s0.197 0.092 0.342 0.092c0.146 0 0.26-0.030 0.342-0.092 0.084-0.061 0.127-0.143 0.127-0.245 0-0.106-0.043-0.189-0.129-0.251-0.084-0.061-0.198-0.092-0.34-0.092-0.144 0-0.258 0.030-0.342 0.092-0.083 0.061-0.124 0.144-0.124 0.248zM36.039 19.22c0.167 0 0.297-0.034 0.391-0.102 0.095-0.068 0.143-0.161 0.143-0.278s-0.048-0.208-0.143-0.275c-0.093-0.068-0.224-0.102-0.391-0.102-0.165 0-0.296 0.034-0.391 0.102-0.093 0.067-0.14 0.158-0.14 0.275 0 0.119 0.047 0.212 0.14 0.28 0.093 0.067 0.224 0.1 0.391 0.1zM37.709 17.466c0.25 0 0.441 0.083 0.574 0.248 0.133 0.164 0.199 0.395 0.199 0.695 0 0.21-0.036 0.388-0.108 0.534s-0.172 0.256-0.302 0.331c-0.129 0.074-0.28 0.11-0.453 0.11-0.187 0-0.336-0.034-0.447-0.102l0.078-0.156c0.090 0.059 0.212 0.089 0.366 0.089 0.208 0 0.372-0.066 0.49-0.197 0.119-0.133 0.178-0.325 0.178-0.577 0-0.047-0.003-0.098-0.008-0.154-0.047 0.102-0.121 0.182-0.224 0.24-0.102 0.056-0.22 0.084-0.353 0.084-0.124 0-0.234-0.023-0.331-0.070-0.095-0.047-0.17-0.112-0.224-0.197-0.054-0.086-0.081-0.186-0.081-0.299 0-0.115 0.028-0.216 0.084-0.305s0.132-0.155 0.229-0.202c0.099-0.049 0.209-0.073 0.331-0.073zM37.731 18.447c0.095 0 0.179-0.018 0.251-0.054 0.074-0.036 0.131-0.085 0.172-0.148s0.062-0.133 0.062-0.21c0-0.072-0.020-0.138-0.059-0.199-0.038-0.061-0.094-0.11-0.17-0.148s-0.165-0.057-0.269-0.057c-0.137 0-0.248 0.038-0.334 0.113-0.084 0.074-0.127 0.172-0.127 0.296s0.042 0.223 0.127 0.296c0.086 0.074 0.202 0.11 0.348 0.11zM39.432 17.466c0.25 0 0.441 0.083 0.574 0.248 0.133 0.164 0.199 0.395 0.199 0.695 0 0.21-0.036 0.388-0.108 0.534s-0.172 0.256-0.302 0.331c-0.129 0.074-0.28 0.11-0.453 0.11-0.187 0-0.336-0.034-0.447-0.102l0.078-0.156c0.090 0.059 0.212 0.089 0.366 0.089 0.208 0 0.372-0.066 0.49-0.197 0.119-0.133 0.178-0.325 0.178-0.577 0-0.047-0.003-0.098-0.008-0.154-0.047 0.102-0.121 0.182-0.224 0.24-0.102 0.056-0.22 0.084-0.353 0.084-0.124 0-0.234-0.023-0.331-0.070-0.095-0.047-0.17-0.112-0.224-0.197-0.054-0.086-0.081-0.186-0.081-0.299 0-0.115 0.028-0.216 0.084-0.305s0.132-0.155 0.229-0.202c0.099-0.049 0.209-0.073 0.331-0.073zM39.454 18.447c0.095 0 0.179-0.018 0.251-0.054 0.074-0.036 0.131-0.085 0.172-0.148s0.062-0.133 0.062-0.21c0-0.072-0.020-0.138-0.059-0.199-0.038-0.061-0.094-0.11-0.17-0.148s-0.165-0.057-0.269-0.057c-0.137 0-0.248 0.038-0.334 0.113-0.084 0.074-0.127 0.172-0.127 0.296s0.042 0.223 0.127 0.296c0.086 0.074 0.202 0.11 0.348 0.11zM41.32 19.385c-0.146 0-0.276-0.039-0.391-0.116-0.113-0.077-0.202-0.188-0.267-0.331-0.063-0.146-0.094-0.316-0.094-0.512s0.032-0.366 0.094-0.509c0.065-0.146 0.154-0.257 0.267-0.334 0.115-0.077 0.245-0.116 0.391-0.116s0.275 0.039 0.388 0.116c0.115 0.077 0.205 0.189 0.269 0.334 0.065 0.144 0.097 0.313 0.097 0.509s-0.032 0.366-0.097 0.512c-0.065 0.144-0.154 0.254-0.269 0.331-0.113 0.077-0.243 0.116-0.388 0.116zM41.32 19.207c0.11 0 0.206-0.030 0.288-0.092 0.084-0.061 0.15-0.15 0.197-0.267s0.070-0.258 0.070-0.423c0-0.165-0.023-0.306-0.070-0.423s-0.112-0.206-0.197-0.267c-0.083-0.061-0.179-0.092-0.288-0.092s-0.207 0.030-0.291 0.092c-0.083 0.061-0.147 0.15-0.194 0.267s-0.070 0.258-0.070 0.423c0 0.165 0.023 0.306 0.070 0.423s0.111 0.206 0.194 0.267c0.084 0.061 0.181 0.092 0.291 0.092z"></path>
<path fill="#C4C4C4" d="M36.711 24.602c-0.109 0-0.207-0.029-0.293-0.087-0.085-0.058-0.152-0.141-0.2-0.249-0.047-0.109-0.071-0.237-0.071-0.384s0.024-0.274 0.071-0.382c0.048-0.109 0.115-0.193 0.2-0.251 0.086-0.058 0.184-0.087 0.293-0.087s0.206 0.029 0.291 0.087c0.086 0.058 0.154 0.141 0.202 0.251 0.048 0.108 0.073 0.235 0.073 0.382s-0.024 0.275-0.073 0.384c-0.048 0.108-0.116 0.191-0.202 0.249-0.085 0.058-0.182 0.087-0.291 0.087zM36.711 24.468c0.082 0 0.154-0.023 0.216-0.069 0.063-0.046 0.112-0.113 0.148-0.2s0.053-0.193 0.053-0.317c0-0.124-0.018-0.23-0.053-0.317s-0.084-0.154-0.148-0.2c-0.062-0.046-0.134-0.069-0.216-0.069s-0.155 0.023-0.218 0.069c-0.062 0.046-0.11 0.113-0.146 0.2s-0.053 0.193-0.053 0.317c0 0.124 0.018 0.23 0.053 0.317s0.084 0.154 0.146 0.2c0.063 0.046 0.136 0.069 0.218 0.069zM38.11 24.602c-0.109 0-0.207-0.029-0.293-0.087-0.085-0.058-0.152-0.141-0.2-0.249-0.047-0.109-0.071-0.237-0.071-0.384s0.024-0.274 0.071-0.382c0.048-0.109 0.115-0.193 0.2-0.251 0.086-0.058 0.184-0.087 0.293-0.087s0.206 0.029 0.291 0.087c0.086 0.058 0.154 0.141 0.202 0.251 0.048 0.108 0.073 0.235 0.073 0.382s-0.024 0.275-0.073 0.384c-0.048 0.108-0.116 0.191-0.202 0.249-0.085 0.058-0.182 0.087-0.291 0.087zM38.11 24.468c0.082 0 0.154-0.023 0.216-0.069 0.063-0.046 0.112-0.113 0.148-0.2s0.053-0.193 0.053-0.317c0-0.124-0.018-0.23-0.053-0.317s-0.084-0.154-0.148-0.2c-0.062-0.046-0.134-0.069-0.216-0.069s-0.155 0.023-0.218 0.069c-0.062 0.046-0.11 0.113-0.146 0.2s-0.053 0.193-0.053 0.317c0 0.124 0.018 0.23 0.053 0.317s0.084 0.154 0.146 0.2c0.063 0.046 0.136 0.069 0.218 0.069zM39.417 22.888h0.131l-0.667 1.904h-0.131l0.667-1.904zM40.167 24.602c-0.109 0-0.207-0.029-0.293-0.087-0.085-0.058-0.152-0.141-0.2-0.249-0.047-0.109-0.071-0.237-0.071-0.384s0.024-0.274 0.071-0.382c0.048-0.109 0.115-0.193 0.2-0.251 0.086-0.058 0.184-0.087 0.293-0.087s0.206 0.029 0.291 0.087c0.086 0.058 0.154 0.141 0.202 0.251 0.048 0.108 0.073 0.235 0.073 0.382s-0.024 0.275-0.073 0.384c-0.048 0.108-0.116 0.191-0.202 0.249-0.085 0.058-0.182 0.087-0.291 0.087zM40.167 24.468c0.082 0 0.154-0.023 0.216-0.069 0.063-0.046 0.112-0.113 0.148-0.2s0.053-0.193 0.053-0.317c0-0.124-0.018-0.23-0.053-0.317s-0.084-0.154-0.148-0.2c-0.062-0.046-0.134-0.069-0.216-0.069s-0.155 0.023-0.218 0.069c-0.062 0.046-0.11 0.113-0.146 0.2s-0.053 0.193-0.053 0.317c0 0.124 0.018 0.23 0.053 0.317s0.084 0.154 0.146 0.2c0.063 0.046 0.136 0.069 0.218 0.069zM41.566 24.602c-0.109 0-0.207-0.029-0.293-0.087-0.085-0.058-0.152-0.141-0.2-0.249-0.047-0.109-0.071-0.237-0.071-0.384s0.024-0.274 0.071-0.382c0.048-0.109 0.115-0.193 0.2-0.251 0.086-0.058 0.184-0.087 0.293-0.087s0.206 0.029 0.291 0.087c0.086 0.058 0.154 0.141 0.202 0.251 0.048 0.108 0.073 0.235 0.073 0.382s-0.024 0.275-0.073 0.384c-0.048 0.108-0.116 0.191-0.202 0.249-0.085 0.058-0.182 0.087-0.291 0.087zM41.566 24.468c0.082 0 0.154-0.023 0.216-0.069 0.063-0.046 0.112-0.113 0.148-0.2s0.053-0.193 0.053-0.317c0-0.124-0.018-0.23-0.053-0.317s-0.084-0.154-0.148-0.2c-0.062-0.046-0.134-0.069-0.216-0.069s-0.155 0.023-0.218 0.069c-0.062 0.046-0.11 0.113-0.146 0.2s-0.053 0.193-0.053 0.317c0 0.124 0.018 0.23 0.053 0.317s0.084 0.154 0.146 0.2c0.063 0.046 0.136 0.069 0.218 0.069z"></path>
<path fill="#C4C4C4" d="M8.968 27.806v0.489h-0.148v-0.489l-0.566-0.926h0.16l0.485 0.794 0.485-0.794h0.15l-0.566 0.926zM10.384 28.307c-0.14 0-0.267-0.031-0.382-0.093-0.113-0.063-0.202-0.15-0.267-0.259-0.063-0.109-0.095-0.232-0.095-0.368s0.032-0.259 0.095-0.368c0.065-0.109 0.154-0.195 0.267-0.257 0.115-0.063 0.242-0.095 0.382-0.095s0.266 0.031 0.378 0.093c0.113 0.062 0.202 0.148 0.267 0.259 0.065 0.109 0.097 0.232 0.097 0.368s-0.032 0.259-0.097 0.37c-0.065 0.109-0.154 0.195-0.267 0.257-0.112 0.062-0.238 0.093-0.378 0.093zM10.384 28.173c0.112 0 0.213-0.025 0.303-0.075 0.090-0.051 0.161-0.121 0.212-0.21 0.051-0.090 0.077-0.191 0.077-0.301s-0.026-0.21-0.077-0.299c-0.051-0.090-0.122-0.16-0.212-0.21-0.090-0.051-0.191-0.077-0.303-0.077s-0.214 0.026-0.305 0.077c-0.090 0.050-0.162 0.12-0.214 0.21-0.051 0.089-0.077 0.189-0.077 0.299s0.026 0.211 0.077 0.301c0.053 0.089 0.124 0.159 0.214 0.21 0.092 0.050 0.193 0.075 0.305 0.075zM12.091 28.307c-0.183 0-0.326-0.053-0.428-0.158s-0.154-0.258-0.154-0.459v-0.81h0.15v0.804c0 0.164 0.037 0.287 0.111 0.368s0.181 0.121 0.321 0.121c0.141 0 0.249-0.040 0.323-0.121s0.111-0.203 0.111-0.368v-0.804h0.146v0.81c0 0.201-0.051 0.354-0.154 0.459-0.101 0.105-0.243 0.158-0.426 0.158zM14.149 28.295l-0.323-0.455c-0.036 0.004-0.074 0.006-0.113 0.006h-0.38v0.449h-0.15v-1.415h0.53c0.181 0 0.322 0.043 0.424 0.129s0.154 0.205 0.154 0.356c0 0.11-0.028 0.204-0.085 0.281-0.055 0.075-0.135 0.13-0.238 0.164l0.346 0.485h-0.164zM13.708 27.719c0.14 0 0.247-0.031 0.321-0.093s0.111-0.149 0.111-0.261c0-0.115-0.037-0.202-0.111-0.263-0.074-0.062-0.181-0.093-0.321-0.093h-0.376v0.709h0.376zM16.476 26.88v1.415h-0.123l-0.909-1.148v1.148h-0.15v-1.415h0.123l0.911 1.148v-1.148h0.148zM17.885 27.917h-0.788l-0.17 0.378h-0.156l0.647-1.415h0.148l0.647 1.415h-0.158l-0.17-0.378zM17.831 27.796l-0.34-0.76-0.34 0.76h0.679zM19.977 26.88v1.415h-0.143v-1.132l-0.556 0.952h-0.071l-0.556-0.946v1.126h-0.143v-1.415h0.123l0.614 1.049 0.608-1.049h0.123zM21.499 28.165v0.129h-1v-1.415h0.97v0.129h-0.821v0.503h0.732v0.127h-0.732v0.525h0.851z"></path>
<path fill="#F5F5F5" d="M35.708 6.482c-0.083 0-0.149-0.004-0.199-0.011-0.048-0.005-0.092-0.019-0.132-0.040-0.038-0.020-0.082-0.051-0.132-0.094-0.075-0.068-0.141-0.133-0.197-0.194-0.054-0.059-0.108-0.109-0.162-0.148-0.054-0.038-0.119-0.057-0.194-0.057-0.165 0-0.306-0.029-0.423-0.086-0.115-0.059-0.208-0.137-0.28-0.232-0.072-0.097-0.125-0.204-0.159-0.321-0.032-0.117-0.048-0.233-0.048-0.348 0-0.113 0.019-0.227 0.057-0.342 0.040-0.117 0.098-0.224 0.175-0.321 0.079-0.097 0.178-0.175 0.296-0.234s0.258-0.089 0.418-0.089c0.164 0 0.304 0.030 0.423 0.089s0.216 0.138 0.291 0.237c0.075 0.097 0.131 0.203 0.167 0.318s0.054 0.229 0.054 0.342c0 0.090-0.013 0.181-0.038 0.275-0.025 0.092-0.063 0.181-0.113 0.267-0.050 0.084-0.114 0.161-0.191 0.229-0.075 0.066-0.164 0.119-0.264 0.159 0.052 0 0.098 0.004 0.137 0.011 0.041 0.007 0.082 0.021 0.121 0.040 0.040 0.022 0.083 0.055 0.129 0.1 0.063 0.057 0.112 0.104 0.148 0.14 0.038 0.036 0.068 0.063 0.092 0.081 0.023 0.020 0.045 0.032 0.065 0.038 0.022 0.007 0.047 0.011 0.075 0.011v0.181h-0.116zM34.746 5.741c0.093 0 0.172-0.022 0.234-0.067 0.063-0.047 0.113-0.107 0.151-0.181s0.065-0.154 0.081-0.24c0.018-0.088 0.027-0.173 0.027-0.256 0-0.124-0.011-0.237-0.032-0.34s-0.055-0.19-0.1-0.264c-0.045-0.075-0.102-0.133-0.172-0.172-0.068-0.041-0.149-0.061-0.243-0.059s-0.172 0.027-0.234 0.075c-0.063 0.047-0.113 0.108-0.151 0.183-0.036 0.074-0.062 0.154-0.078 0.243s-0.024 0.173-0.024 0.256c0 0.084 0.009 0.174 0.027 0.269 0.020 0.095 0.050 0.185 0.092 0.269s0.096 0.153 0.164 0.205c0.070 0.052 0.156 0.078 0.259 0.078zM36.507 5.938c-0.108 0-0.195-0.021-0.261-0.062-0.065-0.041-0.112-0.106-0.143-0.194-0.029-0.088-0.043-0.201-0.043-0.34v-0.31c0-0.032 0.001-0.069 0.003-0.11 0.002-0.043 0.004-0.084 0.005-0.124-0.029 0.002-0.063 0.004-0.102 0.005-0.038 0-0.066 0.001-0.086 0.003v-0.205h0.027c0.111 0 0.199-0.009 0.264-0.027s0.106-0.036 0.124-0.054h0.148v0.825c0 0.117 0.015 0.204 0.046 0.261 0.031 0.056 0.079 0.084 0.146 0.084 0.047 0 0.093-0.013 0.14-0.038 0.048-0.027 0.088-0.057 0.119-0.092v-0.528c0-0.032 0.001-0.069 0.003-0.11 0.002-0.043 0.005-0.084 0.008-0.124-0.029 0.002-0.063 0.004-0.102 0.005-0.038 0-0.066 0.001-0.086 0.003v-0.205h0.065c0.085 0 0.159-0.009 0.224-0.027 0.065-0.020 0.106-0.038 0.124-0.054h0.148v0.94c0 0.025-0.001 0.061-0.003 0.108-0.002 0.045-0.004 0.088-0.008 0.129 0.029-0.004 0.060-0.005 0.094-0.005 0.036-0.002 0.063-0.003 0.081-0.003v0.205h-0.512c-0.002-0.023-0.004-0.047-0.008-0.070-0.002-0.023-0.004-0.047-0.008-0.070-0.056 0.047-0.116 0.089-0.181 0.127-0.063 0.038-0.138 0.057-0.224 0.057zM38.316 5.938c-0.077 0-0.153-0.010-0.226-0.030s-0.131-0.045-0.172-0.075l0.005 0.081h-0.205l-0.011-0.463h0.175c0.005 0.054 0.027 0.103 0.065 0.148s0.087 0.081 0.148 0.108c0.061 0.025 0.129 0.038 0.205 0.038 0.030 0 0.059-0.005 0.086-0.013 0.029-0.009 0.052-0.023 0.070-0.043 0.020-0.022 0.030-0.048 0.030-0.078 0-0.034-0.013-0.062-0.038-0.084-0.023-0.022-0.058-0.042-0.105-0.062-0.045-0.020-0.102-0.042-0.17-0.067-0.056-0.022-0.112-0.044-0.17-0.067-0.056-0.023-0.108-0.051-0.156-0.084-0.047-0.034-0.084-0.075-0.113-0.124-0.029-0.050-0.043-0.111-0.043-0.183 0-0.052 0.010-0.103 0.030-0.154 0.020-0.052 0.050-0.099 0.092-0.14 0.041-0.043 0.093-0.077 0.156-0.102 0.065-0.025 0.141-0.038 0.229-0.038 0.048 0 0.103 0.008 0.164 0.024 0.063 0.014 0.116 0.037 0.159 0.067v-0.078h0.205v0.477h-0.175c-0.011-0.063-0.033-0.117-0.067-0.162-0.032-0.045-0.075-0.079-0.127-0.102-0.052-0.025-0.11-0.038-0.175-0.038-0.045 0-0.086 0.011-0.124 0.032-0.036 0.022-0.054 0.058-0.054 0.11 0 0.041 0.014 0.075 0.043 0.1 0.029 0.023 0.068 0.043 0.119 0.059s0.106 0.035 0.167 0.057c0.092 0.031 0.172 0.066 0.243 0.108 0.072 0.041 0.129 0.092 0.17 0.151 0.041 0.057 0.062 0.128 0.062 0.213 0 0.093-0.023 0.171-0.070 0.232s-0.108 0.107-0.183 0.137c-0.074 0.031-0.153 0.046-0.237 0.046zM39.834 5.895c-0.004-0.025-0.006-0.046-0.008-0.062 0-0.018-0.001-0.039-0.003-0.062-0.061 0.061-0.126 0.104-0.194 0.129s-0.137 0.038-0.208 0.038c-0.115 0-0.205-0.034-0.269-0.102s-0.097-0.154-0.097-0.256c0-0.086 0.022-0.16 0.065-0.221 0.045-0.061 0.103-0.11 0.175-0.148 0.074-0.040 0.154-0.069 0.243-0.089 0.090-0.022 0.18-0.034 0.269-0.038v-0.14c0-0.047-0.006-0.089-0.019-0.127-0.011-0.038-0.031-0.067-0.059-0.089-0.027-0.022-0.066-0.031-0.116-0.030-0.034 0.002-0.067 0.009-0.1 0.022s-0.060 0.031-0.084 0.054c0.014 0.016 0.023 0.034 0.027 0.054 0.004 0.018 0.005 0.034 0.005 0.048 0 0.036-0.014 0.074-0.043 0.113-0.029 0.038-0.075 0.056-0.137 0.054-0.054-0.002-0.095-0.021-0.124-0.057s-0.043-0.078-0.043-0.127c0-0.072 0.025-0.134 0.075-0.186 0.052-0.054 0.121-0.095 0.208-0.124 0.086-0.031 0.181-0.046 0.286-0.046 0.158 0 0.28 0.041 0.366 0.124 0.088 0.081 0.132 0.211 0.132 0.391 0 0.061 0 0.113 0 0.156s-0.001 0.086-0.003 0.129c0 0.043 0 0.095 0 0.156 0 0.025-0.001 0.061-0.003 0.108-0.002 0.045-0.005 0.088-0.008 0.129 0.030-0.004 0.063-0.005 0.097-0.005 0.034-0.002 0.060-0.003 0.078-0.003v0.205h-0.509zM39.804 5.275c-0.050 0.005-0.098 0.014-0.143 0.027s-0.085 0.030-0.119 0.051c-0.032 0.022-0.058 0.048-0.078 0.078-0.018 0.031-0.027 0.065-0.027 0.102 0.002 0.050 0.018 0.086 0.048 0.108s0.066 0.032 0.105 0.032c0.041 0 0.080-0.009 0.116-0.027s0.068-0.041 0.097-0.070c0-0.018 0-0.035 0-0.051 0-0.018 0-0.036 0-0.054 0-0.032 0-0.065 0-0.097 0-0.034 0-0.067 0-0.1zM40.59 5.895v-0.178c0.041-0.002 0.075-0.007 0.102-0.016 0.029-0.009 0.050-0.030 0.065-0.062 0.016-0.032 0.024-0.084 0.024-0.156v-1.032c0-0.048 0.001-0.095 0.003-0.14 0.004-0.045 0.006-0.079 0.008-0.102-0.029 0.002-0.065 0.004-0.108 0.005-0.043 0-0.074 0.001-0.094 0.003v-0.207c0.124-0.002 0.248-0.003 0.372-0.003 0.126 0 0.251-0.001 0.375-0.003 0.216-0.002 0.386 0.039 0.512 0.121 0.128 0.081 0.187 0.204 0.178 0.369-0.004 0.052-0.020 0.103-0.048 0.154-0.029 0.048-0.072 0.093-0.129 0.132-0.056 0.040-0.126 0.071-0.21 0.094v0.003c0.18 0.029 0.312 0.089 0.396 0.181 0.085 0.090 0.127 0.19 0.127 0.302 0 0.117-0.029 0.216-0.086 0.296-0.056 0.079-0.133 0.139-0.232 0.181-0.099 0.040-0.211 0.059-0.337 0.059h-0.916zM41.161 5.703c0.032 0 0.063 0 0.092 0s0.058 0 0.086 0c0.029-0.002 0.057-0.003 0.084-0.003 0.11-0.005 0.19-0.040 0.24-0.105s0.075-0.146 0.075-0.245c0-0.083-0.017-0.147-0.051-0.194-0.034-0.048-0.078-0.083-0.132-0.102-0.052-0.020-0.107-0.030-0.164-0.030-0.045 0-0.084 0-0.116 0s-0.066 0.001-0.102 0.003v0.439c0 0.048-0.001 0.094-0.003 0.137s-0.004 0.076-0.008 0.1zM41.172 4.836l0.14-0.003c0.075-0.002 0.135-0.019 0.178-0.051 0.045-0.032 0.076-0.075 0.094-0.129 0.020-0.056 0.030-0.116 0.030-0.181 0-0.072-0.014-0.128-0.043-0.167-0.029-0.041-0.065-0.071-0.108-0.089s-0.088-0.026-0.135-0.024c-0.029 0-0.055 0.005-0.078 0.013s-0.042 0.030-0.057 0.062c-0.014 0.031-0.022 0.081-0.022 0.151v0.418zM43.177 5.895c-0.004-0.025-0.006-0.046-0.008-0.062 0-0.018-0.001-0.039-0.003-0.062-0.061 0.061-0.126 0.104-0.194 0.129s-0.137 0.038-0.208 0.038c-0.115 0-0.205-0.034-0.269-0.102s-0.097-0.154-0.097-0.256c0-0.086 0.022-0.16 0.065-0.221 0.045-0.061 0.103-0.11 0.175-0.148 0.074-0.040 0.155-0.069 0.243-0.089 0.090-0.022 0.18-0.034 0.269-0.038v-0.14c0-0.047-0.006-0.089-0.019-0.127-0.011-0.038-0.030-0.067-0.059-0.089-0.027-0.022-0.066-0.031-0.116-0.030-0.034 0.002-0.067 0.009-0.1 0.022s-0.060 0.031-0.084 0.054c0.014 0.016 0.023 0.034 0.027 0.054 0.004 0.018 0.005 0.034 0.005 0.048 0 0.036-0.014 0.074-0.043 0.113-0.029 0.038-0.074 0.056-0.137 0.054-0.054-0.002-0.095-0.021-0.124-0.057s-0.043-0.078-0.043-0.127c0-0.072 0.025-0.134 0.075-0.186 0.052-0.054 0.121-0.095 0.208-0.124 0.086-0.031 0.182-0.046 0.286-0.046 0.158 0 0.28 0.041 0.366 0.124 0.088 0.081 0.132 0.211 0.132 0.391 0 0.061 0 0.113 0 0.156s-0.001 0.086-0.003 0.129c0 0.043 0 0.095 0 0.156 0 0.025-0.001 0.061-0.003 0.108-0.002 0.045-0.004 0.088-0.008 0.129 0.031-0.004 0.063-0.005 0.097-0.005 0.034-0.002 0.060-0.003 0.078-0.003v0.205h-0.509zM43.147 5.275c-0.050 0.005-0.098 0.014-0.143 0.027s-0.084 0.030-0.119 0.051c-0.032 0.022-0.058 0.048-0.078 0.078-0.018 0.031-0.027 0.065-0.027 0.102 0.002 0.050 0.018 0.086 0.048 0.108s0.066 0.032 0.105 0.032c0.041 0 0.080-0.009 0.116-0.027s0.068-0.041 0.097-0.070c0-0.018 0-0.035 0-0.051 0-0.018 0-0.036 0-0.054 0-0.032 0-0.065 0-0.097 0-0.034 0-0.067 0-0.1zM43.922 5.895v-0.175c0.050 0 0.086-0.010 0.108-0.030s0.035-0.048 0.040-0.084c0.007-0.038 0.011-0.080 0.011-0.127v-0.453c0-0.032 0.001-0.068 0.003-0.108 0.002-0.041 0.005-0.082 0.008-0.121-0.029 0.002-0.063 0.004-0.102 0.005-0.038 0-0.067 0.001-0.086 0.003v-0.205c0.083 0 0.153-0.005 0.21-0.013s0.102-0.020 0.135-0.032c0.034-0.013 0.057-0.024 0.070-0.035h0.132c0.004 0.023 0.005 0.040 0.005 0.051s0 0.022 0 0.032c0.002 0.009 0.005 0.026 0.011 0.051 0.036-0.029 0.077-0.054 0.124-0.075 0.047-0.023 0.093-0.041 0.14-0.054 0.047-0.014 0.088-0.022 0.124-0.022 0.165 0 0.282 0.048 0.35 0.143 0.070 0.093 0.105 0.244 0.105 0.453v0.361c0 0.025-0.001 0.061-0.003 0.108-0.002 0.045-0.005 0.088-0.008 0.129 0.030-0.004 0.063-0.005 0.097-0.005 0.034-0.002 0.060-0.003 0.078-0.003v0.205h-0.706v-0.175c0.050 0 0.086-0.010 0.108-0.030 0.023-0.020 0.038-0.048 0.043-0.084 0.007-0.038 0.011-0.080 0.011-0.127l-0.003-0.383c0-0.117-0.017-0.203-0.051-0.259-0.032-0.057-0.088-0.086-0.167-0.086-0.045 0-0.090 0.010-0.135 0.030-0.043 0.020-0.080 0.043-0.11 0.070 0 0.025 0 0.051 0 0.078 0 0.025 0 0.050 0 0.075v0.455c0 0.025-0.001 0.061-0.003 0.108-0.002 0.045-0.005 0.088-0.008 0.129 0.029-0.004 0.060-0.005 0.094-0.005 0.036-0.002 0.063-0.003 0.081-0.003v0.205h-0.706zM45.673 5.895v-0.175c0.050 0 0.086-0.010 0.108-0.030 0.023-0.020 0.038-0.048 0.043-0.084 0.007-0.038 0.011-0.080 0.011-0.127v-1.108c0-0.032 0.001-0.069 0.003-0.11 0.002-0.043 0.005-0.084 0.008-0.124-0.029 0.002-0.063 0.004-0.102 0.005-0.038 0-0.067 0.001-0.086 0.003v-0.205c0.083 0 0.152-0.005 0.208-0.013 0.057-0.009 0.103-0.020 0.137-0.032s0.057-0.024 0.067-0.035h0.148v1.229h0.129l0.194-0.224c0.023-0.025 0.042-0.047 0.057-0.065 0.016-0.018 0.032-0.034 0.048-0.048h-0.143v-0.205h0.606v0.172c-0.063 0.007-0.119 0.022-0.167 0.046-0.048 0.022-0.091 0.048-0.127 0.078-0.034 0.031-0.064 0.060-0.089 0.089l-0.172 0.194c0.027 0.013 0.053 0.031 0.078 0.057 0.027 0.023 0.059 0.060 0.097 0.11l0.181 0.237c0.011 0.013 0.024 0.030 0.040 0.051 0.018 0.022 0.038 0.043 0.059 0.065 0.022 0.020 0.045 0.037 0.070 0.051s0.051 0.022 0.078 0.022v0.175h-0.31c-0.057 0-0.108-0.020-0.151-0.059-0.043-0.041-0.092-0.1-0.148-0.175-0.032-0.043-0.067-0.089-0.102-0.137-0.034-0.050-0.067-0.097-0.097-0.14-0.029-0.045-0.052-0.080-0.070-0.105l-0.062 0.003v0.181c0 0.025-0.001 0.061-0.003 0.108-0.002 0.045-0.005 0.088-0.008 0.129 0.029-0.004 0.060-0.005 0.094-0.005 0.034-0.002 0.061-0.003 0.081-0.003v0.205h-0.709z"></path>
</symbol>
</defs>
</svg>
