<svg aria-hidden="true" style="position: absolute; width: 0; height: 0; overflow: hidden;" version="1.1" xmlns="http://www.w3.org/2000/svg" xmlns:xlink="http://www.w3.org/1999/xlink">
<defs>
<symbol id="infinity-card" viewBox="0 0 51 32">
<path fill="#374078" d="M2.695 0h45.137c1.488 0 2.695 1.206 2.695 2.695v26.611c0 1.488-1.206 2.695-2.695 2.695h-45.137c-1.488 0-2.695-1.206-2.695-2.695v-26.611c0-1.488 1.206-2.695 2.695-2.695z"></path>
<path fill="#C4C4C4" d="M2.189 4.833c0-0.558 0.452-1.011 1.011-1.011h4.042c0.558 0 1.011 0.452 1.011 1.011v2.601c0 0.558-0.452 1.011-1.011 1.011h-4.042c-0.558 0-1.011-0.452-1.011-1.011v-2.601z"></path>
</symbol>
<symbol id="average-card" viewBox="0 0 51 32">
<path fill="#EFEFF2" d="M2.695 0h45.137c1.488 0 2.695 1.206 2.695 2.695v26.611c0 1.488-1.206 2.695-2.695 2.695h-45.137c-1.488 0-2.695-1.206-2.695-2.695v-26.611c0-1.488 1.206-2.695 2.695-2.695z"></path>
<path fill="#C4C4C4" d="M2.189 5.474c0-0.558 0.452-1.011 1.011-1.011h4.042c0.558 0 1.011 0.452 1.011 1.011v2.358c0 0.558-0.452 1.011-1.011 1.011h-4.042c-0.558 0-1.011-0.452-1.011-1.011v-2.358z"></path>
</symbol>
<symbol id="n-card" viewBox="0 0 51 32">
<path fill="#2C2A2A" d="M2.695 0h45.137c1.488 0 2.695 1.206 2.695 2.695v26.611c0 1.488-1.206 2.695-2.695 2.695h-45.137c-1.488 0-2.695-1.206-2.695-2.695v-26.611c0-1.488 1.206-2.695 2.695-2.695z"></path>
<path fill="#C4C4C4" d="M4.463 5.474c0-0.558 0.452-1.011 1.011-1.011h4.042c0.558 0 1.011 0.452 1.011 1.011v2.358c0 0.558-0.452 1.011-1.011 1.011h-4.042c-0.558 0-1.011-0.452-1.011-1.011v-2.358z"></path>
</symbol>
<symbol id="child-card" viewBox="0 0 51 32">
<path fill="#086DCA" d="M2.695 0h45.137c1.488 0 2.695 1.206 2.695 2.695v26.611c0 1.488-1.206 2.695-2.695 2.695h-45.137c-1.488 0-2.695-1.206-2.695-2.695v-26.611c0-1.488 1.206-2.695 2.695-2.695z"></path>
<path fill="#C4C4C4" d="M2.189 4.833c0-0.558 0.452-1.011 1.011-1.011h4.042c0.558 0 1.011 0.452 1.011 1.011v2.601c0 0.558-0.452 1.011-1.011 1.011h-4.042c-0.558 0-1.011-0.452-1.011-1.011v-2.601z"></path>
</symbol>
<symbol id="pink-card" viewBox="0 0 51 32">
<path fill="#F97A7A" d="M2.695 0h45.137c1.488 0 2.695 1.206 2.695 2.695v26.611c0 1.488-1.206 2.695-2.695 2.695h-45.137c-1.488 0-2.695-1.206-2.695-2.695v-26.611c0-1.488 1.206-2.695 2.695-2.695z"></path>
<path fill="#C4C4C4" d="M2.189 5.474c0-0.558 0.452-1.011 1.011-1.011h4.042c0.558 0 1.011 0.452 1.011 1.011v2.358c0 0.558-0.452 1.011-1.011 1.011h-4.042c-0.558 0-1.011-0.452-1.011-1.011v-2.358z"></path>
</symbol>
<symbol id="hub-card" viewBox="0 0 51 32">
<path fill="#FE9600" d="M2.695 0h45.137c1.488 0 2.695 1.206 2.695 2.695v26.611c0 1.488-1.206 2.695-2.695 2.695h-45.137c-1.488 0-2.695-1.206-2.695-2.695v-26.611c0-1.488 1.206-2.695 2.695-2.695z"></path>
<path fill="#C4C4C4" d="M4.463 5.474c0-0.558 0.452-1.011 1.011-1.011h4.042c0.558 0 1.011 0.452 1.011 1.011v2.358c0 0.558-0.452 1.011-1.011 1.011h-4.042c-0.558 0-1.011-0.452-1.011-1.011v-2.358z"></path>
</symbol>
</defs>
</svg>
