<svg aria-hidden="true" style="position: absolute; width: 0; height: 0; overflow: hidden;" version="1.1" xmlns="http://www.w3.org/2000/svg" xmlns:xlink="http://www.w3.org/1999/xlink">
<defs>
<symbol id="phone" viewBox="0 0 32 32">
<path fill="#335DE8" d="M22.012 31.755h-12.023c-1.809 0-3.281-1.472-3.281-3.281v-24.947c0-1.809 1.472-3.281 3.281-3.281h12.023c1.809 0 3.28 1.472 3.28 3.281v24.947c0 1.809-1.471 3.281-3.28 3.281z"></path>
<path fill="#EFEFF2" d="M23.906 4.518h-15.812v21.835h15.812v-21.835z"></path>
<path fill="#C4C4C4" d="M16 29.794c-0.684 0-1.241-0.557-1.241-1.241s0.557-1.241 1.241-1.241c0.684 0 1.241 0.557 1.241 1.241s-0.557 1.241-1.241 1.241zM16 28.012c-0.298 0-0.541 0.243-0.541 0.541s0.243 0.541 0.541 0.541c0.298 0 0.541-0.242 0.541-0.541s-0.243-0.541-0.541-0.541z"></path>
<path fill="#C4C4C4" d="M18.195 3.069h-4.391c-0.193 0-0.35-0.157-0.35-0.35s0.157-0.35 0.35-0.35h4.391c0.194 0 0.35 0.157 0.35 0.35s-0.157 0.35-0.35 0.35z"></path>
</symbol>
<symbol id="lock" viewBox="0 0 32 32">
<path fill="#335DE8" d="M25.875 13.286c-6.583-1.653-13.166-1.653-19.749 0-0.889 0.223-1.51 1.027-1.51 1.943v13.342c0 0.916 0.622 1.72 1.51 1.943 6.583 1.653 13.166 1.653 19.749 0 0.889-0.223 1.51-1.027 1.51-1.943v-13.342c0-0.917-0.621-1.72-1.51-1.943z"></path>
<path fill="#C4C4C4" d="M9.816 11.132v-2.080c0-3.41 2.775-6.185 6.184-6.185s6.184 2.775 6.184 6.185v2.080c0.874 0.138 1.748 0.306 2.622 0.502v-2.582c0-4.856-3.951-8.807-8.806-8.807s-8.807 3.951-8.807 8.807v2.582c0.874-0.196 1.748-0.364 2.622-0.502z"></path>
<path fill="#EFEFF2" d="M17.27 21.97v3.427c0 0.701-0.569 1.27-1.27 1.27s-1.27-0.569-1.27-1.27v-3.427c-0.761-0.499-1.213-1.433-0.996-2.45 0.186-0.872 0.892-1.576 1.766-1.759 1.501-0.314 2.822 0.823 2.822 2.268 0 0.813-0.418 1.527-1.051 1.941z"></path>
</symbol>
<symbol id="headphones" viewBox="0 0 32 32">
<path fill="#C4C4C4" d="M5.343 14.707c-0.193 0-0.35-0.157-0.35-0.35v-1.753c0-3.057 1.224-5.897 3.446-7.999 0.14-0.133 0.362-0.127 0.495 0.014s0.127 0.362-0.014 0.495c-2.081 1.968-3.226 4.628-3.226 7.49v1.753c0 0.193-0.157 0.35-0.35 0.35z"></path>
<path fill="#C4C4C4" d="M26.657 14.707c-0.194 0-0.35-0.157-0.35-0.35v-1.753c0-2.862-1.146-5.522-3.227-7.49-0.14-0.133-0.147-0.354-0.014-0.495s0.355-0.146 0.495-0.014c2.222 2.101 3.445 4.942 3.445 7.999v1.753c0 0.194-0.157 0.35-0.35 0.35z"></path>
<path fill="#C4C4C4" d="M22.757 29.848h-4.851c-0.194 0-0.35-0.157-0.35-0.35s0.157-0.35 0.35-0.35h4.851c1.957 0 3.55-1.592 3.55-3.55v-0.438c0-0.194 0.157-0.35 0.35-0.35s0.35 0.157 0.35 0.35v0.438c0 2.343-1.906 4.25-4.25 4.25z"></path>
<path fill="#335DE8" d="M11.881 19.889h-2.058c-0.131 0-0.251-0.073-0.311-0.19s-0.050-0.256 0.026-0.363l1.877-2.639c0.136-0.192 0.156-0.434 0.051-0.648-0.048-0.098-0.193-0.326-0.512-0.341l-0.035-0.001c-0.412 0-0.747 0.335-0.747 0.747 0 0.194-0.157 0.35-0.35 0.35s-0.35-0.156-0.35-0.35c0-0.798 0.649-1.447 1.447-1.447l0.065 0.001c0.483 0.022 0.898 0.296 1.111 0.733 0.215 0.441 0.173 0.962-0.11 1.36l-1.484 2.086h1.379c0.193 0 0.35 0.157 0.35 0.35s-0.156 0.35-0.349 0.35z"></path>
<path fill="#335DE8" d="M15.207 19.889c-0.193 0-0.35-0.157-0.35-0.35v-0.427h-2.092c-0.131 0-0.251-0.074-0.312-0.19s-0.050-0.257 0.027-0.364l2.442-3.404c0.089-0.124 0.247-0.175 0.392-0.129s0.243 0.181 0.243 0.333v3.054h0.432c0.193 0 0.35 0.157 0.35 0.35s-0.157 0.35-0.35 0.35h-0.432v0.427c0 0.194-0.157 0.35-0.35 0.35zM13.447 18.412h1.41v-1.965l-1.41 1.965z"></path>
<path fill="#335DE8" d="M19.724 24.264c-0.060 0-0.121-0.015-0.177-0.048-0.167-0.098-0.223-0.312-0.125-0.479l2.143-3.654h-1.841c-0.194 0-0.35-0.157-0.35-0.35s0.157-0.35 0.35-0.35h2.453c0.125 0 0.241 0.067 0.304 0.176s0.062 0.243-0.002 0.351l-2.453 4.181c-0.065 0.111-0.182 0.173-0.302 0.173z"></path>
<path fill="#335DE8" d="M15.212 24.264c-0.058 0-0.117-0.015-0.172-0.045-0.168-0.095-0.228-0.309-0.133-0.477l4.833-8.556c0.096-0.169 0.308-0.228 0.477-0.133 0.168 0.095 0.228 0.309 0.133 0.477l-4.833 8.556c-0.064 0.114-0.183 0.177-0.305 0.177z"></path>
<path fill="#335DE8" d="M5.343 25.16c-0.883 0-1.599-0.716-1.599-1.599v-7.54c0-0.883 0.716-1.599 1.599-1.599s1.599 0.716 1.599 1.599v7.54c-0 0.883-0.716 1.599-1.599 1.599z"></path>
<path fill="#335DE8" d="M26.657 25.16c-0.883 0-1.599-0.716-1.599-1.599v-7.54c0-0.883 0.716-1.599 1.599-1.599s1.599 0.716 1.599 1.599v7.54c0 0.883-0.716 1.599-1.599 1.599z"></path>
<path fill="#335DE8" d="M16 3.521c2.115 0 4.069 0.687 5.655 1.847 0.382 0.279 0.906 0.252 1.24-0.083l0.679-0.679c0.404-0.404 0.356-1.065-0.093-1.418-2.059-1.623-4.656-2.593-7.481-2.593s-5.422 0.97-7.482 2.592c-0.448 0.353-0.496 1.015-0.093 1.418l0.679 0.679c0.334 0.334 0.858 0.362 1.24 0.083 1.586-1.16 3.54-1.846 5.655-1.846z"></path>
<path fill="#335DE8" d="M15.998 31.404c1.053 0 1.906-0.853 1.906-1.906s-0.854-1.906-1.906-1.906c-1.053 0-1.906 0.854-1.906 1.906s0.853 1.906 1.906 1.906z"></path>
</symbol>
<symbol id="time" viewBox="0 0 32 32">
<path fill="#C4C4C4" d="M15.364 25.621c-0.041 0-0.081-0.007-0.12-0.021-0.088-0.032-0.159-0.097-0.197-0.181l-1.159-2.486c-0.816-1.75-0.499-3.836 0.779-5.27l-0.798-1.711c-1.922 0.054-3.722-1.041-4.538-2.791l-1.159-2.486c-0.082-0.175-0.006-0.383 0.169-0.465l8.148-3.799c0.084-0.039 0.181-0.043 0.268-0.012s0.158 0.097 0.197 0.181l1.159 2.486c0.816 1.75 0.499 3.836-0.779 5.27l0.797 1.711c1.931-0.053 3.723 1.041 4.538 2.791l1.16 2.486c0.039 0.084 0.043 0.181 0.012 0.268s-0.097 0.158-0.181 0.197l-8.148 3.8c-0.047 0.022-0.097 0.033-0.148 0.033zM14.086 15.24c0.135 0 0.259 0.078 0.317 0.202l0.998 2.14c0.062 0.133 0.035 0.29-0.068 0.394-1.212 1.229-1.538 3.102-0.811 4.662l1.011 2.168 7.513-3.503-1.011-2.168c-0.727-1.56-2.375-2.518-4.092-2.375-0.149 0.011-0.284-0.069-0.346-0.201l-0.998-2.14c-0.062-0.133-0.035-0.29 0.068-0.394 1.212-1.228 1.538-3.101 0.81-4.662l-1.011-2.168-7.513 3.503 1.011 2.168c0.728 1.56 2.373 2.511 4.092 2.375 0.010-0.001 0.019-0.002 0.029-0.002z"></path>
<path fill="#335DE8" d="M17.702 18.821l-2.233-4.789c0.812-0.563 1.127-1.643 0.696-2.569l-3.745 1.746c0.432 0.926 1.462 1.379 2.415 1.119l2.233 4.789c-1.531 0.907-2.153 2.846-1.385 4.492l6.351-2.962c-0.768-1.647-2.652-2.416-4.331-1.827z"></path>
<path fill="#335DE8" d="M29.692 7.814c-0.122 0-0.241-0.064-0.305-0.178-2.062-3.648-5.944-5.915-10.13-5.915-3.574 0-6.898 1.609-9.12 4.414-0.12 0.152-0.34 0.176-0.492 0.057s-0.177-0.34-0.057-0.492c2.356-2.974 5.88-4.679 9.669-4.679 4.439 0 8.554 2.403 10.74 6.27 0.095 0.168 0.036 0.382-0.132 0.477-0.054 0.031-0.113 0.045-0.172 0.045z"></path>
<path fill="#335DE8" d="M12.069 31.173c-3.789 0-7.313-1.705-9.669-4.679-0.12-0.152-0.095-0.372 0.057-0.492s0.371-0.095 0.492 0.057c2.222 2.805 5.546 4.414 9.12 4.414 4.186 0 8.068-2.267 10.13-5.915 0.095-0.168 0.309-0.227 0.477-0.132s0.228 0.309 0.132 0.477c-2.186 3.868-6.301 6.27-10.74 6.27z"></path>
<path fill="#335DE8" d="M31.312 9.39h-0.334v-0.335c0-0.193-0.157-0.35-0.35-0.35s-0.35 0.157-0.35 0.35v0.335h-0.335c-0.194 0-0.35 0.157-0.35 0.35s0.156 0.35 0.35 0.35h0.335v0.335c0 0.193 0.157 0.35 0.35 0.35s0.35-0.157 0.35-0.35v-0.335h0.334c0.194 0 0.35-0.157 0.35-0.35s-0.157-0.35-0.35-0.35z"></path>
<path fill="#335DE8" d="M9.68 2.357c-0.282 0-0.547-0.11-0.747-0.309s-0.309-0.465-0.309-0.747 0.11-0.547 0.309-0.747c0.412-0.412 1.082-0.411 1.493 0s0.412 1.082 0 1.494c-0.2 0.2-0.465 0.309-0.747 0.309zM9.68 0.945c-0.091 0-0.182 0.035-0.252 0.104-0.067 0.067-0.104 0.157-0.104 0.251s0.037 0.184 0.104 0.251c0.139 0.139 0.364 0.139 0.503 0s0.139-0.364 0-0.503c-0.070-0.069-0.161-0.103-0.252-0.103z"></path>
<path fill="#335DE8" d="M5.826 22.591c-0.076 0-0.153-0.024-0.217-0.076-2.973-2.356-4.679-5.88-4.679-9.669 0-4.438 2.403-8.554 6.27-10.74 0.169-0.095 0.382-0.036 0.477 0.132s0.036 0.382-0.132 0.477c-3.648 2.062-5.915 5.944-5.915 10.13 0 3.574 1.609 6.898 4.413 9.12 0.152 0.12 0.177 0.341 0.057 0.492-0.069 0.088-0.171 0.133-0.274 0.133z"></path>
<path fill="#335DE8" d="M26.185 29.777c-0.103 0-0.206-0.046-0.275-0.133-0.12-0.152-0.095-0.372 0.057-0.492 2.805-2.222 4.414-5.546 4.414-9.12 0-4.186-2.267-8.068-5.915-10.13-0.168-0.095-0.228-0.309-0.132-0.477s0.309-0.228 0.477-0.132c3.868 2.186 6.27 6.301 6.27 10.74 0 3.789-1.705 7.313-4.679 9.669-0.064 0.051-0.141 0.075-0.217 0.075z"></path>
<path fill="#335DE8" d="M23.967 31.755c-0.283 0-0.548-0.11-0.747-0.309-0.411-0.411-0.411-1.081 0-1.494 0.412-0.412 1.081-0.411 1.494-0l0 0c0.411 0.412 0.411 1.082-0 1.494-0.2 0.2-0.465 0.309-0.747 0.309zM23.967 30.343c-0.091 0-0.182 0.035-0.252 0.104-0.139 0.139-0.139 0.364 0 0.503 0.135 0.135 0.369 0.135 0.503 0 0.139-0.139 0.139-0.364 0-0.503-0.069-0.070-0.161-0.104-0.252-0.104z"></path>
<path fill="#335DE8" d="M2.057 23.883h-0.334v-0.335c0-0.194-0.157-0.35-0.35-0.35s-0.35 0.157-0.35 0.35v0.335h-0.335c-0.193 0-0.35 0.157-0.35 0.35s0.157 0.35 0.35 0.35h0.335v0.334c0 0.194 0.157 0.35 0.35 0.35s0.35-0.157 0.35-0.35v-0.334h0.334c0.193 0 0.35-0.157 0.35-0.35s-0.157-0.35-0.35-0.35z"></path>
</symbol>
</defs>
</svg>
