<svg aria-hidden="true" style="position: absolute; width: 0; height: 0; overflow: hidden;" version="1.1" xmlns="http://www.w3.org/2000/svg" xmlns:xlink="http://www.w3.org/1999/xlink">
<defs>
<symbol id="phone" viewBox="0 0 32 32">
<path fill="#335DE8" d="M22.012 31.755h-12.023c-1.809 0-3.281-1.472-3.281-3.281v-24.947c0-1.809 1.472-3.281 3.281-3.281h12.023c1.809 0 3.28 1.472 3.28 3.281v24.947c0 1.809-1.471 3.281-3.28 3.281z"></path>
<path fill="#EFEFF2" d="M23.906 4.518h-15.812v21.835h15.812v-21.835z"></path>
<path fill="#C4C4C4" d="M16 29.794c-0.684 0-1.241-0.557-1.241-1.241s0.557-1.241 1.241-1.241c0.684 0 1.241 0.557 1.241 1.241s-0.557 1.241-1.241 1.241zM16 28.012c-0.298 0-0.541 0.243-0.541 0.541s0.243 0.541 0.541 0.541c0.298 0 0.541-0.242 0.541-0.541s-0.243-0.541-0.541-0.541z"></path>
<path fill="#C4C4C4" d="M18.195 3.069h-4.391c-0.193 0-0.35-0.157-0.35-0.35s0.157-0.35 0.35-0.35h4.391c0.194 0 0.35 0.157 0.35 0.35s-0.157 0.35-0.35 0.35z"></path>
</symbol>
<symbol id="lock" viewBox="0 0 32 32">
<path fill="#335DE8" d="M25.875 13.286c-6.583-1.653-13.166-1.653-19.749 0-0.889 0.223-1.51 1.027-1.51 1.943v13.342c0 0.916 0.622 1.72 1.51 1.943 6.583 1.653 13.166 1.653 19.749 0 0.889-0.223 1.51-1.027 1.51-1.943v-13.342c0-0.917-0.621-1.72-1.51-1.943z"></path>
<path fill="#C4C4C4" d="M9.816 11.132v-2.080c0-3.41 2.775-6.185 6.184-6.185s6.184 2.775 6.184 6.185v2.080c0.874 0.138 1.748 0.306 2.622 0.502v-2.582c0-4.856-3.951-8.807-8.806-8.807s-8.807 3.951-8.807 8.807v2.582c0.874-0.196 1.748-0.364 2.622-0.502z"></path>
<path fill="#EFEFF2" d="M17.27 21.97v3.427c0 0.701-0.569 1.27-1.27 1.27s-1.27-0.569-1.27-1.27v-3.427c-0.761-0.499-1.213-1.433-0.996-2.45 0.186-0.872 0.892-1.576 1.766-1.759 1.501-0.314 2.822 0.823 2.822 2.268 0 0.813-0.418 1.527-1.051 1.941z"></path>
</symbol>
<symbol id="headphones" viewBox="0 0 32 32">
<path fill="#C4C4C4" d="M5.343 14.707c-0.193 0-0.35-0.157-0.35-0.35v-1.753c0-3.057 1.224-5.897 3.446-7.999 0.14-0.133 0.362-0.127 0.495 0.014s0.127 0.362-0.014 0.495c-2.081 1.968-3.226 4.628-3.226 7.49v1.753c0 0.193-0.157 0.35-0.35 0.35z"></path>
<path fill="#C4C4C4" d="M26.657 14.707c-0.194 0-0.35-0.157-0.35-0.35v-1.753c0-2.862-1.146-5.522-3.227-7.49-0.14-0.133-0.147-0.354-0.014-0.495s0.355-0.146 0.495-0.014c2.222 2.101 3.445 4.942 3.445 7.999v1.753c0 0.194-0.157 0.35-0.35 0.35z"></path>
<path fill="#C4C4C4" d="M22.757 29.848h-4.851c-0.194 0-0.35-0.157-0.35-0.35s0.157-0.35 0.35-0.35h4.851c1.957 0 3.55-1.592 3.55-3.55v-0.438c0-0.194 0.157-0.35 0.35-0.35s0.35 0.157 0.35 0.35v0.438c0 2.343-1.906 4.25-4.25 4.25z"></path>
<path fill="#335DE8" d="M11.881 19.889h-2.058c-0.131 0-0.251-0.073-0.311-0.19s-0.050-0.256 0.026-0.363l1.877-2.639c0.136-0.192 0.156-0.434 0.051-0.648-0.048-0.098-0.193-0.326-0.512-0.341l-0.035-0.001c-0.412 0-0.747 0.335-0.747 0.747 0 0.194-0.157 0.35-0.35 0.35s-0.35-0.156-0.35-0.35c0-0.798 0.649-1.447 1.447-1.447l0.065 0.001c0.483 0.022 0.898 0.296 1.111 0.733 0.215 0.441 0.173 0.962-0.11 1.36l-1.484 2.086h1.379c0.193 0 0.35 0.157 0.35 0.35s-0.156 0.35-0.349 0.35z"></path>
<path fill="#335DE8" d="M15.207 19.889c-0.193 0-0.35-0.157-0.35-0.35v-0.427h-2.092c-0.131 0-0.251-0.074-0.312-0.19s-0.050-0.257 0.027-0.364l2.442-3.404c0.089-0.124 0.247-0.175 0.392-0.129s0.243 0.181 0.243 0.333v3.054h0.432c0.193 0 0.35 0.157 0.35 0.35s-0.157 0.35-0.35 0.35h-0.432v0.427c0 0.194-0.157 0.35-0.35 0.35zM13.447 18.412h1.41v-1.965l-1.41 1.965z"></path>
<path fill="#335DE8" d="M19.724 24.264c-0.060 0-0.121-0.015-0.177-0.048-0.167-0.098-0.223-0.312-0.125-0.479l2.143-3.654h-1.841c-0.194 0-0.35-0.157-0.35-0.35s0.157-0.35 0.35-0.35h2.453c0.125 0 0.241 0.067 0.304 0.176s0.062 0.243-0.002 0.351l-2.453 4.181c-0.065 0.111-0.182 0.173-0.302 0.173z"></path>
<path fill="#335DE8" d="M15.212 24.264c-0.058 0-0.117-0.015-0.172-0.045-0.168-0.095-0.228-0.309-0.133-0.477l4.833-8.556c0.096-0.169 0.308-0.228 0.477-0.133 0.168 0.095 0.228 0.309 0.133 0.477l-4.833 8.556c-0.064 0.114-0.183 0.177-0.305 0.177z"></path>
<path fill="#335DE8" d="M5.343 25.16c-0.883 0-1.599-0.716-1.599-1.599v-7.54c0-0.883 0.716-1.599 1.599-1.599s1.599 0.716 1.599 1.599v7.54c-0 0.883-0.716 1.599-1.599 1.599z"></path>
<path fill="#335DE8" d="M26.657 25.16c-0.883 0-1.599-0.716-1.599-1.599v-7.54c0-0.883 0.716-1.599 1.599-1.599s1.599 0.716 1.599 1.599v7.54c0 0.883-0.716 1.599-1.599 1.599z"></path>
<path fill="#335DE8" d="M16 3.521c2.115 0 4.069 0.687 5.655 1.847 0.382 0.279 0.906 0.252 1.24-0.083l0.679-0.679c0.404-0.404 0.356-1.065-0.093-1.418-2.059-1.623-4.656-2.593-7.481-2.593s-5.422 0.97-7.482 2.592c-0.448 0.353-0.496 1.015-0.093 1.418l0.679 0.679c0.334 0.334 0.858 0.362 1.24 0.083 1.586-1.16 3.54-1.846 5.655-1.846z"></path>
<path fill="#335DE8" d="M15.998 31.404c1.053 0 1.906-0.853 1.906-1.906s-0.854-1.906-1.906-1.906c-1.053 0-1.906 0.854-1.906 1.906s0.853 1.906 1.906 1.906z"></path>
</symbol>
<symbol id="time" viewBox="0 0 32 32">
<path fill="#C4C4C4" d="M15.364 25.621c-0.041 0-0.081-0.007-0.12-0.021-0.088-0.032-0.159-0.097-0.197-0.181l-1.159-2.486c-0.816-1.75-0.499-3.836 0.779-5.27l-0.798-1.711c-1.922 0.054-3.722-1.041-4.538-2.791l-1.159-2.486c-0.082-0.175-0.006-0.383 0.169-0.465l8.148-3.799c0.084-0.039 0.181-0.043 0.268-0.012s0.158 0.097 0.197 0.181l1.159 2.486c0.816 1.75 0.499 3.836-0.779 5.27l0.797 1.711c1.931-0.053 3.723 1.041 4.538 2.791l1.16 2.486c0.039 0.084 0.043 0.181 0.012 0.268s-0.097 0.158-0.181 0.197l-8.148 3.8c-0.047 0.022-0.097 0.033-0.148 0.033zM14.086 15.24c0.135 0 0.259 0.078 0.317 0.202l0.998 2.14c0.062 0.133 0.035 0.29-0.068 0.394-1.212 1.229-1.538 3.102-0.811 4.662l1.011 2.168 7.513-3.503-1.011-2.168c-0.727-1.56-2.375-2.518-4.092-2.375-0.149 0.011-0.284-0.069-0.346-0.201l-0.998-2.14c-0.062-0.133-0.035-0.29 0.068-0.394 1.212-1.228 1.538-3.101 0.81-4.662l-1.011-2.168-7.513 3.503 1.011 2.168c0.728 1.56 2.373 2.511 4.092 2.375 0.010-0.001 0.019-0.002 0.029-0.002z"></path>
<path fill="#335DE8" d="M17.702 18.821l-2.233-4.789c0.812-0.563 1.127-1.643 0.696-2.569l-3.745 1.746c0.432 0.926 1.462 1.379 2.415 1.119l2.233 4.789c-1.531 0.907-2.153 2.846-1.385 4.492l6.351-2.962c-0.768-1.647-2.652-2.416-4.331-1.827z"></path>
<path fill="#335DE8" d="M29.692 7.814c-0.122 0-0.241-0.064-0.305-0.178-2.062-3.648-5.944-5.915-10.13-5.915-3.574 0-6.898 1.609-9.12 4.414-0.12 0.152-0.34 0.176-0.492 0.057s-0.177-0.34-0.057-0.492c2.356-2.974 5.88-4.679 9.669-4.679 4.439 0 8.554 2.403 10.74 6.27 0.095 0.168 0.036 0.382-0.132 0.477-0.054 0.031-0.113 0.045-0.172 0.045z"></path>
<path fill="#335DE8" d="M12.069 31.173c-3.789 0-7.313-1.705-9.669-4.679-0.12-0.152-0.095-0.372 0.057-0.492s0.371-0.095 0.492 0.057c2.222 2.805 5.546 4.414 9.12 4.414 4.186 0 8.068-2.267 10.13-5.915 0.095-0.168 0.309-0.227 0.477-0.132s0.228 0.309 0.132 0.477c-2.186 3.868-6.301 6.27-10.74 6.27z"></path>
<path fill="#335DE8" d="M31.312 9.39h-0.334v-0.335c0-0.193-0.157-0.35-0.35-0.35s-0.35 0.157-0.35 0.35v0.335h-0.335c-0.194 0-0.35 0.157-0.35 0.35s0.156 0.35 0.35 0.35h0.335v0.335c0 0.193 0.157 0.35 0.35 0.35s0.35-0.157 0.35-0.35v-0.335h0.334c0.194 0 0.35-0.157 0.35-0.35s-0.157-0.35-0.35-0.35z"></path>
<path fill="#335DE8" d="M9.68 2.357c-0.282 0-0.547-0.11-0.747-0.309s-0.309-0.465-0.309-0.747 0.11-0.547 0.309-0.747c0.412-0.412 1.082-0.411 1.493 0s0.412 1.082 0 1.494c-0.2 0.2-0.465 0.309-0.747 0.309zM9.68 0.945c-0.091 0-0.182 0.035-0.252 0.104-0.067 0.067-0.104 0.157-0.104 0.251s0.037 0.184 0.104 0.251c0.139 0.139 0.364 0.139 0.503 0s0.139-0.364 0-0.503c-0.070-0.069-0.161-0.103-0.252-0.103z"></path>
<path fill="#335DE8" d="M5.826 22.591c-0.076 0-0.153-0.024-0.217-0.076-2.973-2.356-4.679-5.88-4.679-9.669 0-4.438 2.403-8.554 6.27-10.74 0.169-0.095 0.382-0.036 0.477 0.132s0.036 0.382-0.132 0.477c-3.648 2.062-5.915 5.944-5.915 10.13 0 3.574 1.609 6.898 4.413 9.12 0.152 0.12 0.177 0.341 0.057 0.492-0.069 0.088-0.171 0.133-0.274 0.133z"></path>
<path fill="#335DE8" d="M26.185 29.777c-0.103 0-0.206-0.046-0.275-0.133-0.12-0.152-0.095-0.372 0.057-0.492 2.805-2.222 4.414-5.546 4.414-9.12 0-4.186-2.267-8.068-5.915-10.13-0.168-0.095-0.228-0.309-0.132-0.477s0.309-0.228 0.477-0.132c3.868 2.186 6.27 6.301 6.27 10.74 0 3.789-1.705 7.313-4.679 9.669-0.064 0.051-0.141 0.075-0.217 0.075z"></path>
<path fill="#335DE8" d="M23.967 31.755c-0.283 0-0.548-0.11-0.747-0.309-0.411-0.411-0.411-1.081 0-1.494 0.412-0.412 1.081-0.411 1.494-0l0 0c0.411 0.412 0.411 1.082-0 1.494-0.2 0.2-0.465 0.309-0.747 0.309zM23.967 30.343c-0.091 0-0.182 0.035-0.252 0.104-0.139 0.139-0.139 0.364 0 0.503 0.135 0.135 0.369 0.135 0.503 0 0.139-0.139 0.139-0.364 0-0.503-0.069-0.070-0.161-0.104-0.252-0.104z"></path>
<path fill="#335DE8" d="M2.057 23.883h-0.334v-0.335c0-0.194-0.157-0.35-0.35-0.35s-0.35 0.157-0.35 0.35v0.335h-0.335c-0.193 0-0.35 0.157-0.35 0.35s0.157 0.35 0.35 0.35h0.335v0.334c0 0.194 0.157 0.35 0.35 0.35s0.35-0.157 0.35-0.35v-0.334h0.334c0.193 0 0.35-0.157 0.35-0.35s-0.157-0.35-0.35-0.35z"></path>
</symbol>



<symbol id="card" viewBox="0 0 60 32">
<path fill="#fff" style="fill: var(--color1, #fff)" d="M4 0h52c2.209 0 4 1.791 4 4v24c0 2.209-1.791 4-4 4h-52c-2.209 0-4-1.791-4-4v-24c0-2.209 1.791-4 4-4z"></path>
<path fill="none" stroke="#efeff2" style="stroke: var(--color2, #efeff2)" stroke-linejoin="miter" stroke-linecap="round" stroke-miterlimit="4" stroke-width="1.6" d="M4.8 20h43.6"></path>
<path fill="none" stroke="#efeff2" style="stroke: var(--color2, #efeff2)" stroke-linejoin="miter" stroke-linecap="round" stroke-miterlimit="4" stroke-width="1.2" d="M4.6 29.4h9.6"></path>
<path fill="none" stroke="#efeff2" style="stroke: var(--color2, #efeff2)" stroke-linejoin="miter" stroke-linecap="round" stroke-miterlimit="4" stroke-width="1.2" d="M42.6 23.4h6"></path>
<path fill="none" stroke="#efeff2" style="stroke: var(--color2, #efeff2)" stroke-linejoin="miter" stroke-linecap="round" stroke-miterlimit="4" stroke-width="1.2" d="M33.4 23.4h6"></path>
<path fill="#efeff2" style="fill: var(--color2, #efeff2)" d="M4.8 4.4h6v3.6h-6v-3.6z"></path>
</symbol>
<symbol id="graphic-hero" viewBox="0 0 59 32">
<path fill="#fff" style="fill: var(--color1, #fff)" d="M5.333 0h48c2.946 0 5.333 2.388 5.333 5.333v21.333c0 2.946-2.388 5.333-5.333 5.333h-48c-2.946 0-5.333-2.388-5.333-5.333v-21.333c0-2.946 2.388-5.333 5.333-5.333z"></path>
<path fill="#335de8" style="fill: var(--color3, #335de8)" opacity="0.3" d="M4 22.133c7.733 1.067 8-14.933 20.267-7.467s10.667-8 20.533-4c6.8 2.757 8.811 3.337 9.067 3.274v-0.074c0.037 0.037 0.041 0.064 0 0.074v14.326h-49.6l-0.267-6.133z"></path>
<path fill="none" stroke="#efeff2" style="stroke: var(--color2, #efeff2)" stroke-linejoin="miter" stroke-linecap="butt" stroke-miterlimit="4" stroke-width="1.0667" d="M4.267 5.867v22.933"></path>
<path fill="none" stroke="#efeff2" style="stroke: var(--color2, #efeff2)" stroke-linejoin="miter" stroke-linecap="butt" stroke-miterlimit="4" stroke-width="1.0667" d="M53.867 28.267h-50.133"></path>
<path fill="none" stroke="#c4c4c4" style="stroke: var(--color4, #c4c4c4)" stroke-linejoin="miter" stroke-linecap="butt" stroke-miterlimit="4" stroke-width="1.0667" d="M4.592 27.567l11.942-10.233"></path>
<path fill="none" stroke="#c4c4c4" style="stroke: var(--color4, #c4c4c4)" stroke-linejoin="miter" stroke-linecap="butt" stroke-miterlimit="4" stroke-width="1.0667" d="M16.377 17.223l10.133 10.133"></path>
<path fill="none" stroke="#c4c4c4" style="stroke: var(--color4, #c4c4c4)" stroke-linejoin="miter" stroke-linecap="butt" stroke-miterlimit="4" stroke-width="1.0667" d="M26.133 27.467l8.324-10.032"></path>
<path fill="none" stroke="#c4c4c4" style="stroke: var(--color4, #c4c4c4)" stroke-linejoin="miter" stroke-linecap="butt" stroke-miterlimit="4" stroke-width="1.0667" d="M34.133 17.6l8-5.067"></path>
<path fill="none" stroke="#c4c4c4" style="stroke: var(--color4, #c4c4c4)" stroke-linejoin="miter" stroke-linecap="butt" stroke-miterlimit="4" stroke-width="1.0667" d="M41.713 12.279l12.266 2.667"></path>
<path fill="#335de8" style="fill: var(--color3, #335de8)" d="M18.133 17.6c0 0.884-0.716 1.6-1.6 1.6s-1.6-0.716-1.6-1.6 0.716-1.6 1.6-1.6c0.884 0 1.6 0.716 1.6 1.6z"></path>
<path fill="#335de8" style="fill: var(--color3, #335de8)" d="M28.267 27.2c0 0.884-0.716 1.6-1.6 1.6s-1.6-0.716-1.6-1.6 0.716-1.6 1.6-1.6c0.884 0 1.6 0.716 1.6 1.6z"></path>
<path fill="#335de8" style="fill: var(--color3, #335de8)" d="M36 17.6c0 0.884-0.716 1.6-1.6 1.6s-1.6-0.716-1.6-1.6 0.716-1.6 1.6-1.6c0.884 0 1.6 0.716 1.6 1.6z"></path>
<path fill="#335de8" style="fill: var(--color3, #335de8)" d="M43.467 12.8c0 0.884-0.716 1.6-1.6 1.6s-1.6-0.716-1.6-1.6 0.716-1.6 1.6-1.6c0.884 0 1.6 0.716 1.6 1.6z"></path>
<path fill="#335de8" style="fill: var(--color3, #335de8)" d="M54.667 14.4c0 0.884-0.716 1.6-1.6 1.6s-1.6-0.716-1.6-1.6 0.716-1.6 1.6-1.6c0.884 0 1.6 0.716 1.6 1.6z"></path>
<path fill="#335de8" style="fill: var(--color3, #335de8)" d="M6.4 27.732c0 0.884-0.716 1.6-1.6 1.6s-1.6-0.716-1.6-1.6c0-0.884 0.716-1.6 1.6-1.6s1.6 0.716 1.6 1.6z"></path>
</symbol>
<symbol id="hero1" viewBox="0 0 11 32">
<path fill="#593a77" style="fill: var(--color5, #593a77)" d="M8.822 5.499l1.503 6.566-0.698 5.068-0.971-1.587 0.166-10.047z"></path>
<path fill="#f9b6a4" style="fill: var(--color6, #f9b6a4)" d="M7.521 1.403c0 0 0.105 1.122-0.045 1.45s-0.449 0.406-0.744 0.432c-0.295 0.026 0.266 1.675 0.266 1.675l-1.76-0.374c0 0 0.159-2.305 0.097-3.126s0.616-0.96 1.153-0.943c0.537 0.017 1.075 0.131 1.035 0.888z"></path>
<path fill="#0b4768" style="fill: var(--color7, #0b4768)" d="M3.43 30.368c0.013 0.209 0.046 0.415 0.097 0.618 0.070 0.227 1.568 0.679 1.6 0.847s-0.528 0.165-1.026 0.097c-0.498-0.068-0.762-0.239-1.002-0.277s-0.44-0.1-0.48-0.142c-0.041-0.042 0.184-0.93 0.112-1.155s0.7 0.013 0.7 0.013z"></path>
<path fill="#0b4768" style="fill: var(--color7, #0b4768)" d="M9.215 30.063c0.032 0.206 0.083 0.409 0.152 0.607 0.092 0.219 1.624 0.535 1.669 0.698s-0.51 0.212-1.014 0.19c-0.504-0.022-0.78-0.17-1.024-0.184s-0.446-0.060-0.492-0.099c-0.045-0.039 0.1-0.942 0.009-1.161s0.699-0.051 0.699-0.051z"></path>
<path fill="#412b53" style="fill: var(--color8, #412b53)" d="M2.191 30.352l1.682 0.107 1.052-6.309 1.299-6.070 1.946 12.095 1.602-0.065c0 0 0.125-8.93 0.098-9.664-0.107-2.793-0.545-5.925-0.545-5.925l-6.444 0.092-0.377 2.741-0.313 12.996z"></path>
<path fill="#fbe495" style="fill: var(--color9, #fbe495)" d="M7.521 1.403c0.085-0.171 0.111-0.366 0.074-0.553-0.137-0.601-1.092-1.049-1.802-0.757-0.56 0.23-0.759 0.824-0.793 1.009-0.075 0.399 0.338 1.481 0.338 1.481 0.063-0.027 0.118-0.068 0.163-0.12s0.078-0.112 0.096-0.178c0 0-0.27-0.29-0.205-0.598s0.345-0.346 0.429 0.009l0.173-0.028-0.009-0.523c0 0 0.135-0.205 0.695-0.223s0.793 0.075 0.793 0.075l0.048 0.406z"></path>
<path fill="#a3b9e8" style="fill: var(--color10, #a3b9e8)" d="M5.278 3.93l-3.083 1.796 0.486 8.917h6.685l-0.544-9.144-2.021-1.149-0.214 0.462-1.309-0.882z"></path>
<path fill="#593a77" style="fill: var(--color5, #593a77)" d="M5.278 3.93l1.412 5.448-1.245 5.931-3.361-0.173 0.112-9.409 3.083-1.796z"></path>
<path fill="#593a77" style="fill: var(--color5, #593a77)" d="M3.651 8.132c-0.198 1.137-1.291 3.294-1.291 3.294l1.291 3.883-1.456 1.157-2.010-4.262c-0.216-0.458-0.244-0.983-0.077-1.462 0.013-0.038 0.027-0.075 0.042-0.112l2.045-4.903c0 0 1.656 1.266 1.456 2.404z"></path>
<path fill="#593a77" style="fill: var(--color5, #593a77)" d="M7.181 4.566l0.381 4.922 1.098 6.059 1.419 0.485c0 0-1.034-8.694-1.258-10.533l-1.641-0.932z"></path>
<path fill="#f9b6a4" style="fill: var(--color6, #f9b6a4)" d="M3.396 15.513l0.097 0.155 0.485 0.663-1.083 0.802-0.286-0.561-0.101-0.356 0.887-0.704z"></path>
<path fill="#412b53" style="fill: var(--color8, #412b53)" d="M0.714 11.65c0.006 0.16-0.028 0.318-0.098 0.461s-0.175 0.267-0.305 0.36l-0.126-0.267c-0.216-0.458-0.244-0.983-0.077-1.462 0.346 0.076 0.607 0.453 0.607 0.907z"></path>
</symbol>
<symbol id="hero2" viewBox="0 0 10 32">
<path fill="#0b4768" style="fill: var(--color7, #0b4768)" d="M2.738 5.018c0 0-1.137 0.845-1.814 3.017-0.412 1.336-0.721 2.701-0.924 4.084l1.408 0.474c0 0 1.722-6.898 1.331-7.575z"></path>
<path fill="#155581" style="fill: var(--color11, #155581)" d="M5.324 4.2c0 0-1.921 0.45-2.585 0.817s-1.257 2.716-1.398 4.731c-0.142 2.015 0.282 4.553 0.282 4.553l6.556-0.173c0 0 0.7-5.187 0.724-6.917s-0.914-2.569-0.914-2.569l-2.663-0.442z"></path>
<path fill="#eda08b" style="fill: var(--color12, #eda08b)" d="M3.772 1.391c0 0-0.079 1.28 0.064 1.618s0.444 0.427 0.746 0.463c0.302 0.036-0.266 1.546-0.266 1.546l1.743-0.177c0 0-0.088-2.346 0-3.183s-0.598-0.996-1.144-0.996c-0.88 0-0.983 0.338-1.143 0.729z"></path>
<path fill="#0b4768" style="fill: var(--color7, #0b4768)" d="M2.265 30.111c-0.034 0.21-0.086 0.417-0.157 0.617-0.094 0.222-1.654 0.54-1.701 0.706s0.52 0.218 1.032 0.196c0.512-0.022 0.794-0.171 1.042-0.188s0.454-0.060 0.5-0.099c0.046-0.038-0.099-0.959-0.006-1.181s-0.71-0.052-0.71-0.052z"></path>
<path fill="#0b4768" style="fill: var(--color7, #0b4768)" d="M9.047 30.007c0.034 0.21 0.049 0.422 0.044 0.634-0.020 0.241-1.408 1.032-1.396 1.201s0.563 0.045 1.040-0.135c0.477-0.18 0.702-0.409 0.933-0.501s0.413-0.199 0.444-0.25c0.031-0.051-0.392-0.88-0.375-1.121s-0.689 0.172-0.689 0.172z"></path>
<path fill="#82a1d8" style="fill: var(--color13, #82a1d8)" d="M10.404 29.822l-1.971 0.347-2.23-6.633-1.284-3.83-1.613 10.462h-1.993c0 0 0-2.252 0-4.715 0-0.736 0-1.491 0-2.212 0-1.116 0-2.148 0-2.895-0.006-2.845 0.313-6.047 0.313-6.047l6.556-0.173 0.534 3.445 1.687 12.249z"></path>
<path fill="#ce806e" style="fill: var(--color14, #ce806e)" d="M0 12.119c0 0 0.125 0.339 1.014 0.63s4.31-1.192 4.31-1.192l-0.327-0.545c0 0-2.93-0.178-3.599 0s-1.398 1.107-1.398 1.107z"></path>
<path fill="#0b4768" style="fill: var(--color7, #0b4768)" d="M7.99 4.642c0 0 1.27 0.456 1.436 2.307s-2.106 6.427-2.106 6.427l-1.991-0.784c0 0 1.606-6.75 2.661-7.95z"></path>
<path fill="#eda08b" style="fill: var(--color12, #eda08b)" d="M5.656 11.636l-3.699-0.858-0.261 0.893c0 0 4.173 2.252 5.619 1.707l-1.659-1.743z"></path>
<path fill="#0b4768" style="fill: var(--color7, #0b4768)" d="M6.029 3.773c0 0-0.908 0.731-1.11 1.183l0.925 0.536 0.548-1.115-0.363-0.604z"></path>
<path fill="#0b4768" style="fill: var(--color7, #0b4768)" d="M4.593 4.142l0.327 0.815-0.755 0.408c0 0-0.019-0.522 0-0.861l0.429-0.361z"></path>
<path fill="#eda08b" style="fill: var(--color12, #eda08b)" d="M1.957 10.776c-0.18-0.074-0.37-0.125-0.563-0.15-0.296-0.036-0.687 0.332-0.805 0.57l0.303 0.066c0 0 0.436 0.406 0.804 0.406s0.261-0.892 0.261-0.892z"></path>
<path fill="#ce806e" style="fill: var(--color14, #ce806e)" d="M4.997 11.011c0 0 0.765-0.367 0.99-0.388s0.663 0.322 0.806 0.618c-0.094 0.006-0.188 0.006-0.282 0-0.128 0.168-0.285 0.313-0.463 0.427-0.235 0.128-1.049-0.249-1.049-0.249l-0.003-0.409z"></path>
<path fill="#82a1d8" style="fill: var(--color13, #82a1d8)" d="M4.537 5.163l0.069 0.637h0.501l0.314-0.554-0.502-0.29-0.382 0.206z"></path>
<path fill="#82a1d8" style="fill: var(--color13, #82a1d8)" d="M4.606 5.8c-0.244 0.53-0.44 1.080-0.587 1.645-0.282 1.041-0.542 2.44-0.542 2.44l0.338 0.8 0.938-0.845 0.359-4.035-0.507-0.006z"></path>
<path fill="#a6a01e" style="fill: var(--color15, #a6a01e)" d="M3.772 1.391c0 0-0.085-0.689 0.384-1.109s1.361-0.292 1.643-0.133c0.282 0.159 0.267 0.35 0.267 0.35s0.275 0.034 0.41 0.52c0.135 0.486-0.135 1.535-0.457 2.055-0.081-0.063-0.147-0.144-0.193-0.236s-0.071-0.193-0.073-0.296c0 0 0.252-0.158 0.26-0.571s-0.287-0.396-0.358-0.011c0 0-0.195-0.271-0.071-0.712 0 0-0.188-0.259-0.903-0.259s-0.909 0.403-0.909 0.403z"></path>
<path fill="#a3b9e8" style="fill: var(--color10, #a3b9e8)" d="M8.098 24.348c0 0.147-0.029 0.293-0.085 0.429s-0.139 0.26-0.243 0.364c-0.104 0.104-0.228 0.187-0.364 0.243s-0.282 0.085-0.429 0.085c-0.042-0-0.083-0.003-0.125-0.008l-0.647-1.925c0.159-0.151 0.358-0.252 0.574-0.29s0.438-0.013 0.639 0.073c0.201 0.086 0.373 0.23 0.493 0.413s0.185 0.397 0.185 0.616v0z"></path>
<path fill="#a3b9e8" style="fill: var(--color10, #a3b9e8)" d="M2.608 24.348c0 0.297-0.118 0.582-0.328 0.792s-0.495 0.328-0.792 0.328c-0.059 0-0.117-0.005-0.175-0.014 0-0.736 0-1.491 0-2.212 0.058-0.009 0.116-0.014 0.175-0.014 0.147-0 0.293 0.029 0.429 0.085s0.26 0.139 0.364 0.243c0.104 0.104 0.187 0.227 0.243 0.363s0.086 0.282 0.086 0.429z"></path>
</symbol>
<symbol id="id-card" viewBox="0 0 32 32">
<path fill="#fff" style="fill: var(--color1, #fff)" d="M5.818 0h20.364c3.213 0 5.818 2.605 5.818 5.818v20.364c0 3.213-2.605 5.818-5.818 5.818h-20.364c-3.213 0-5.818-2.605-5.818-5.818v-20.364c0-3.213 2.605-5.818 5.818-5.818z"></path>
<path fill="#3d3133" style="fill: var(--color16, #3d3133)" d="M23.673 5.372c-1.474-1.59-2.415-1.414-3.239-1.060s-1.001-0.294-2.413 0.294c-1.412 0.588-1.825 1.59-1.825 2.18s-2.825 1-2.119 3.473 0.471 2.356 0.353 3.18c-0.117 0.824 1.648 2.002 1.884 3.355s2.355 1.945 2.648 2.414c0.294 0.469 4.705-0.223 5.651-0.406s3.237-2.656 2.943-3.008c-0.294-0.353-1.236-0.471-0.529-0.999s1.12-1.119 0.706-2.178c-0.415-1.059 1.12-1.414 0.707-2.002s-1.001-1.648-1.001-2.414c0-0.765-1.059-2.413-1.648-2.651s-2.117-0.176-2.117-0.176z"></path>
<path fill="#f09959" style="fill: var(--color17, #f09959)" d="M21.228 23.273c-0.849-0.002-1.662-0.325-2.263-0.899s-0.938-1.351-0.941-2.163v-4.24c0-0.812 0.337-1.591 0.938-2.165s1.416-0.897 2.265-0.897c0.85 0 1.664 0.323 2.265 0.897s0.938 1.353 0.938 2.165v4.24c-0.002 0.811-0.34 1.589-0.941 2.163s-1.414 0.897-2.263 0.899v0z"></path>
<path fill="#f09959" style="fill: var(--color17, #f09959)" d="M25.991 12.477c0 3.090-2.151 5.594-4.804 5.594s-4.805-2.504-4.805-5.594c0-3.090 2.151-5.594 4.805-5.594s4.804 2.504 4.804 5.594z"></path>
<path fill="#3d3133" style="fill: var(--color16, #3d3133)" d="M16.916 9.022c-0.329 3.455 0.493 6.595 0.904 7.184s1.355 0.668 2.546 0.428c1.191-0.239 2.71 0.55 3.532 0.157s1.27-3.455 1.355-5.378c0.085-1.923 0-2.434 0-2.434s1.027 3.57 0.863 5.182c-0.164 1.613-1.643 4.436-2.176 4.75s-2.669 1.060-3.286 0.942c-0.617-0.118-2.71-1.649-3.039-1.999s-1.027-3.18-1.15-3.886c-0.123-0.706 0.453-4.947 0.453-4.947z"></path>
<path fill="#3d3133" style="fill: var(--color16, #3d3133)" d="M18.519 16.952c-0.287-0.864-0.287-1.767 0.329-1.963s2.054-0.667 2.71-0.51c0.656 0.157 1.684 0.428 1.931 0.902s0.246 1.688 0.246 1.688-1.889-0.157-1.479-0.196c0.411-0.039 0.698 0.078 0.698-0.589s-1.397-1.256-1.766-1.256c-0.369 0-1.725 0.353-1.807 0.628s-0.288 1.060 0.205 1.257c0.493 0.196-1.068 0.039-1.068 0.039z"></path>
<path fill="#3d3133" style="fill: var(--color16, #3d3133)" d="M23.774 8.316c-1.807 1.334-4.189 1.884-5.585 1.295s-1.068 3.219-1.643 4.161c-0.575 0.942-0.801-0.746-0.801-0.746s-0.512-6.045 1.622-6.949c2.135-0.903 5.79-0.236 7.433 0.942s2.054 6.359 1.89 6.752c-0.164 0.393-0.041 0.668-1.314-1.217s-0.551-5.015-1.601-4.239z"></path>
<path fill="#3d3133" style="fill: var(--color16, #3d3133)" d="M19.581 10.284c-0.041 0-0.080-0.016-0.109-0.043s-0.045-0.065-0.045-0.104c0-0.039 0.016-0.076 0.045-0.104s0.068-0.043 0.109-0.043c0.731 0.001 4.412-0.737 4.737-2.704 0.006-0.039 0.028-0.073 0.061-0.096s0.074-0.033 0.115-0.026c0.040 0.006 0.077 0.027 0.101 0.059s0.034 0.071 0.028 0.11c-0.361 2.184-4.236 2.953-5.042 2.953z"></path>
<path fill="#3d3133" style="fill: var(--color16, #3d3133)" d="M19.416 19.669c-0.031 0-0.061-0.009-0.087-0.025-0.047-0.031-1.155-0.757-1.904-1.596-0.013-0.015-0.023-0.032-0.029-0.050s-0.009-0.038-0.007-0.057 0.007-0.038 0.016-0.055c0.009-0.017 0.022-0.033 0.037-0.045s0.033-0.022 0.052-0.028c0.019-0.006 0.040-0.008 0.060-0.007s0.040 0.007 0.058 0.016c0.018 0.009 0.034 0.021 0.047 0.035 0.721 0.81 1.831 1.537 1.842 1.544 0.017 0.010 0.032 0.024 0.043 0.040s0.019 0.034 0.023 0.053 0.003 0.039-0.001 0.058c-0.004 0.019-0.013 0.037-0.025 0.053-0.014 0.020-0.032 0.036-0.054 0.047s-0.046 0.017-0.071 0.017v0z"></path>
<path fill="#f09959" style="fill: var(--color17, #f09959)" d="M25.54 12.497l1.016-0.413c0 0 0.216 1.296-0.339 1.649s-0.924 0.147-0.924 0.147l0.246-1.384z"></path>
<path fill="#f09959" style="fill: var(--color17, #f09959)" d="M16.454 12.722c-0.308 0.235-1.046-0.059-1.046-0.059s0.216 0.972 0.586 1.178c0.37 0.206 0.831 0.029 0.831 0.029s-0.139-1.326-0.371-1.148z"></path>
<path fill="none" stroke="#efeff2" style="stroke: var(--color2, #efeff2)" stroke-linejoin="miter" stroke-linecap="round" stroke-miterlimit="4" stroke-width="1.7455" d="M2.618 10.182h4.655"></path>
<path fill="none" stroke="#efeff2" style="stroke: var(--color2, #efeff2)" stroke-linejoin="miter" stroke-linecap="round" stroke-miterlimit="4" stroke-width="1.1636" d="M3.491 27.345h10.473"></path>
<path fill="none" stroke="#efeff2" style="stroke: var(--color2, #efeff2)" stroke-linejoin="miter" stroke-linecap="round" stroke-miterlimit="4" stroke-width="1.1636" d="M16.291 27.345h2.909"></path>
<path fill="none" stroke="#efeff2" style="stroke: var(--color2, #efeff2)" stroke-linejoin="miter" stroke-linecap="round" stroke-miterlimit="4" stroke-width="1.1636" d="M21.527 27.345h4.655"></path>
<path fill="none" stroke="#efeff2" style="stroke: var(--color2, #efeff2)" stroke-linejoin="miter" stroke-linecap="round" stroke-miterlimit="4" stroke-width="1.1636" d="M3.491 23.855h8.145"></path>
<path fill="none" stroke="#efeff2" style="stroke: var(--color2, #efeff2)" stroke-linejoin="miter" stroke-linecap="round" stroke-miterlimit="4" stroke-width="1.7455" d="M2.618 6.691h9.891"></path>
</symbol>
<symbol id="blop-hero" viewBox="0 0 45 32">
<path fill="#EFEFF2" d="M43.549 20.029c-1.358 4.608-15.919 16.706-30.494 9.941-7.067-3.28-14.056-4.481-12.817-15.757 1.197-10.901 12.159-16.020 26.942-13.509 19.26 3.271 19.146 9.903 16.37 19.325z"/>
</symbol>
</defs>
</svg>
